<svg xmlns="http://www.w3.org/2000/svg" xmlns:xlink="http://www.w3.org/1999/xlink" width="800" zoomAndPan="magnify" viewBox="0 0 375 374.999991" height="800" preserveAspectRatio="xMidYMid meet" version="1.0"><defs><g/><clipPath id="27319b3395"><path d="M 203.636719 108.335938 L 290.636719 108.335938 L 290.636719 146.585938 L 203.636719 146.585938 Z M 203.636719 108.335938 " clip-rule="nonzero"/></clipPath><clipPath id="21ba06345c"><path d="M 98.433594 159.375 L 154.683594 159.375 L 154.683594 215.625 L 98.433594 215.625 Z M 98.433594 159.375 " clip-rule="nonzero"/></clipPath><clipPath id="9badf9490f"><path d="M 126.558594 159.375 C 111.023438 159.375 98.433594 171.96875 98.433594 187.5 C 98.433594 203.03125 111.023438 215.625 126.558594 215.625 C 142.089844 215.625 154.683594 203.03125 154.683594 187.5 C 154.683594 171.96875 142.089844 159.375 126.558594 159.375 Z M 126.558594 159.375 " clip-rule="nonzero"/></clipPath><clipPath id="f237e38ac5"><path d="M 83.195312 108.335938 L 169.914062 108.335938 L 169.914062 146.585938 L 83.195312 146.585938 Z M 83.195312 108.335938 " clip-rule="nonzero"/></clipPath><clipPath id="3c6044ec63"><path d="M 219.15625 159.375 L 275.40625 159.375 L 275.40625 215.625 L 219.15625 215.625 Z M 219.15625 159.375 " clip-rule="nonzero"/></clipPath><clipPath id="edd3c73ab8"><path d="M 247.28125 159.375 C 231.746094 159.375 219.15625 171.96875 219.15625 187.5 C 219.15625 203.03125 231.746094 215.625 247.28125 215.625 C 262.8125 215.625 275.40625 203.03125 275.40625 187.5 C 275.40625 171.96875 262.8125 159.375 247.28125 159.375 Z M 247.28125 159.375 " clip-rule="nonzero"/></clipPath><clipPath id="85ea31bf0d"><path d="M 86.257812 146.589844 L 166.507812 146.589844 L 166.507812 226.839844 L 86.257812 226.839844 Z M 86.257812 146.589844 " clip-rule="nonzero"/></clipPath><clipPath id="5068e3df80"><path d="M 86.257812 147 L 166.507812 147 L 166.507812 226.839844 L 86.257812 226.839844 Z M 86.257812 147 " clip-rule="nonzero"/></clipPath><clipPath id="c1244055c3"><path d="M 206.980469 147.808594 L 287.230469 147.808594 L 287.230469 228.058594 L 206.980469 228.058594 Z M 206.980469 147.808594 " clip-rule="nonzero"/></clipPath><clipPath id="b47d987a9a"><path d="M 207 148 L 287.230469 148 L 287.230469 228 L 207 228 Z M 207 148 " clip-rule="nonzero"/></clipPath></defs><g clip-path="url(#27319b3395)"><path fill="#8bc34a" d="M 246.050781 110.679688 C 245.890625 110.796875 245.714844 110.878906 245.574219 111.019531 C 245.429688 111.15625 245.28125 111.203125 245.160156 111.359375 C 245.035156 111.519531 244.148438 111.226562 244.050781 111.398438 C 243.972656 111.585938 244.445312 112.03125 244.359375 112.21875 C 244.28125 112.40625 244.253906 112.609375 244.167969 112.792969 C 244.117188 112.972656 244.15625 113.136719 244.128906 113.316406 C 244.101562 113.496094 243.960938 113.652344 243.957031 113.835938 C 243.949219 114.019531 243.585938 114.222656 243.601562 114.402344 C 243.617188 114.582031 244.167969 114.707031 244.203125 114.890625 C 244.203125 114.976562 243.546875 115.027344 243.539062 115.109375 C 243.507812 115.238281 244.320312 115.632812 244.28125 115.761719 C 244.167969 115.976562 243.304688 115.769531 243.167969 115.976562 C 243.042969 116.117188 243.460938 116.734375 243.324219 116.871094 C 243.191406 117.003906 242.765625 116.832031 242.625 116.953125 C 242.425781 117.082031 242.523438 117.695312 242.320312 117.8125 C 242.117188 117.933594 241.800781 117.949219 241.59375 118.054688 C 241.4375 118.113281 241.070312 117.628906 240.910156 117.679688 C 240.746094 117.722656 240.566406 117.652344 240.402344 117.691406 C 240.238281 117.730469 240.128906 117.925781 239.964844 117.960938 C 239.785156 117.976562 239.609375 117.886719 239.429688 117.894531 C 239.25 117.902344 239.082031 118.253906 238.902344 118.257812 C 238.722656 118.257812 238.546875 117.589844 238.367188 117.582031 C 238.1875 117.578125 237.992188 118.207031 237.8125 118.203125 C 237.632812 118.191406 237.484375 117.683594 237.304688 117.671875 C 237.125 117.65625 236.839844 118.617188 236.660156 118.601562 C 236.46875 118.566406 236.359375 117.925781 236.167969 117.894531 C 235.980469 117.859375 235.691406 118.320312 235.5 118.28125 C 235.308594 118.242188 235.140625 118.082031 234.949219 118.039062 C 234.757812 118 234.5625 117.976562 234.371094 117.933594 C 234.179688 117.886719 233.960938 117.972656 233.769531 117.925781 C 233.578125 117.882812 233.441406 117.613281 233.257812 117.5625 C 233.066406 117.515625 232.882812 117.464844 232.691406 117.414062 C 232.503906 117.371094 232.414062 116.914062 232.230469 116.871094 C 232.042969 116.820312 231.738281 117.210938 231.554688 117.160156 C 231.367188 117.113281 231.210938 116.949219 231.019531 116.898438 C 230.835938 116.851562 230.597656 116.988281 230.40625 116.941406 C 230.214844 116.898438 230.085938 116.632812 229.894531 116.589844 C 229.703125 116.542969 229.496094 116.601562 229.304688 116.554688 C 229.109375 116.511719 228.933594 116.359375 228.738281 116.320312 C 228.542969 116.273438 228.355469 116.148438 228.160156 116.109375 C 227.957031 116.070312 227.832031 115.632812 227.628906 115.597656 C 227.429688 115.566406 227.113281 116.183594 226.910156 116.148438 C 226.707031 116.117188 226.640625 115.246094 226.4375 115.210938 C 226.234375 115.183594 225.921875 115.929688 225.71875 115.902344 C 225.515625 115.875 225.410156 115.128906 225.207031 115.105469 C 225.003906 115.078125 224.671875 116.105469 224.472656 116.082031 C 224.269531 116.058594 224.144531 115.308594 223.9375 115.285156 C 223.730469 115.265625 223.519531 115.257812 223.3125 115.238281 C 223.105469 115.226562 222.878906 115.648438 222.679688 115.644531 C 222.46875 115.636719 222.273438 115.492188 222.066406 115.492188 C 221.855469 115.492188 221.632812 114.917969 221.425781 114.925781 C 221.214844 114.9375 221.035156 115.453125 220.828125 115.46875 C 220.625 115.488281 220.464844 115.800781 220.261719 115.824219 C 220.058594 115.847656 219.890625 116.027344 219.691406 116.050781 C 219.496094 116.078125 219.140625 115.046875 218.945312 115.082031 C 218.75 115.117188 218.640625 115.734375 218.445312 115.773438 C 218.246094 115.8125 218.035156 115.785156 217.84375 115.828125 C 217.648438 115.875 217.375 115.660156 217.183594 115.710938 C 216.996094 115.769531 216.757812 115.757812 216.566406 115.820312 C 216.375 115.878906 216.195312 116.019531 216.003906 116.097656 C 215.832031 116.171875 215.792969 116.589844 215.617188 116.660156 C 215.441406 116.734375 215.207031 116.671875 215.03125 116.75 C 214.859375 116.832031 214.847656 117.246094 214.671875 117.332031 C 214.5 117.414062 214.148438 117.132812 213.980469 117.222656 C 213.8125 117.3125 213.992188 117.984375 213.835938 118.082031 C 213.675781 118.179688 213.148438 117.691406 212.996094 117.796875 C 212.84375 117.898438 212.738281 118.074219 212.585938 118.183594 C 212.441406 118.292969 212.171875 118.253906 212.023438 118.363281 C 211.878906 118.476562 211.742188 118.613281 211.597656 118.730469 C 211.457031 118.847656 211.761719 119.5 211.621094 119.617188 C 211.480469 119.738281 210.652344 119.097656 210.519531 119.226562 C 210.382812 119.355469 210.582031 119.84375 210.449219 119.972656 C 210.320312 120.109375 210.46875 120.496094 210.34375 120.636719 C 210.21875 120.777344 209.585938 120.46875 209.460938 120.609375 C 209.34375 120.75 209.972656 121.507812 209.855469 121.652344 C 209.738281 121.800781 208.910156 121.390625 208.796875 121.535156 C 208.6875 121.683594 208.472656 121.765625 208.367188 121.917969 C 208.253906 122.070312 208.695312 122.613281 208.589844 122.765625 C 208.484375 122.917969 207.824219 122.703125 207.71875 122.863281 C 207.617188 123.019531 208.296875 123.667969 208.203125 123.828125 C 208.105469 123.992188 207.511719 123.855469 207.421875 124.019531 C 207.332031 124.183594 207.257812 124.363281 207.171875 124.53125 C 207.089844 124.699219 207.234375 124.980469 207.15625 125.148438 C 207.078125 125.320312 206.976562 125.476562 206.902344 125.652344 C 206.832031 125.820312 206.488281 125.875 206.421875 126.042969 C 206.347656 126.210938 206.121094 126.324219 206.054688 126.492188 C 205.988281 126.664062 206.421875 127.039062 206.351562 127.207031 C 206.285156 127.382812 205.769531 127.382812 205.707031 127.550781 C 205.640625 127.726562 206.183594 128.117188 206.121094 128.292969 C 206.058594 128.46875 205.621094 128.507812 205.566406 128.679688 C 205.507812 128.855469 205.078125 128.910156 205.019531 129.089844 C 204.964844 129.265625 205.570312 129.648438 205.515625 129.820312 C 205.464844 129.996094 205.65625 130.238281 205.605469 130.417969 C 205.554688 130.597656 205.121094 130.664062 205.078125 130.84375 C 205.03125 131.03125 204.648438 131.132812 204.605469 131.316406 C 204.558594 131.503906 204.296875 131.636719 204.257812 131.824219 C 204.214844 132.007812 204.527344 132.273438 204.488281 132.457031 C 204.445312 132.644531 204.722656 132.890625 204.683594 133.078125 C 204.644531 133.261719 204.214844 133.367188 204.175781 133.554688 C 204.136719 133.738281 204.578125 134.019531 204.542969 134.207031 C 204.507812 134.390625 204.300781 134.542969 204.265625 134.730469 C 204.234375 134.914062 204.488281 135.183594 204.445312 135.371094 C 204.378906 135.578125 203.722656 135.644531 203.695312 135.855469 C 203.664062 136.066406 204.023438 136.292969 204.035156 136.5 C 204.046875 136.707031 204.054688 136.90625 204.105469 137.113281 C 204.117188 137.320312 203.984375 137.546875 204.03125 137.75 C 204.074219 137.949219 204.160156 138.128906 204.238281 138.320312 C 204.316406 138.507812 204.617188 138.570312 204.726562 138.742188 C 204.824219 138.921875 204.75 139.191406 204.867188 139.351562 C 204.992188 139.511719 204.675781 140.125 204.828125 140.265625 C 204.976562 140.402344 205.738281 139.824219 205.914062 139.933594 C 206.066406 140.074219 205.71875 140.941406 205.886719 141.046875 C 206.054688 141.160156 206.527344 140.800781 206.71875 140.878906 C 206.902344 140.957031 207.03125 141.296875 207.234375 141.339844 C 207.410156 141.378906 207.714844 140.664062 207.894531 140.6875 C 208.074219 140.710938 208.15625 141.746094 208.335938 141.75 C 208.515625 141.757812 208.691406 140.648438 208.871094 140.644531 C 209.050781 140.632812 209.269531 141.226562 209.445312 141.199219 C 209.625 141.171875 209.816406 141.171875 209.988281 141.121094 C 210.164062 141.070312 210.488281 141.324219 210.652344 141.25 C 210.816406 141.175781 210.945312 140.929688 211.097656 140.828125 C 211.265625 140.722656 211.300781 140.390625 211.460938 140.265625 C 211.621094 140.144531 212.011719 140.246094 212.160156 140.105469 C 212.304688 139.964844 212.125 139.492188 212.253906 139.339844 C 212.382812 139.183594 212.199219 138.839844 212.300781 138.671875 C 212.40625 138.496094 213.105469 138.636719 213.175781 138.445312 C 213.25 138.261719 212.722656 137.898438 212.761719 137.699219 C 212.796875 137.511719 212.644531 137.289062 212.675781 137.101562 C 212.710938 136.917969 213.539062 136.878906 213.578125 136.691406 C 213.609375 136.507812 212.953125 136.179688 212.984375 135.996094 C 213.027344 135.808594 213.671875 135.742188 213.710938 135.554688 C 213.75 135.371094 213.632812 135.152344 213.671875 134.964844 C 213.710938 134.78125 213.304688 134.492188 213.347656 134.308594 C 213.386719 134.121094 214.425781 134.167969 214.46875 133.980469 C 214.515625 133.796875 213.761719 133.417969 213.8125 133.234375 C 213.859375 133.046875 213.6875 132.800781 213.738281 132.617188 C 213.789062 132.429688 213.746094 132.210938 213.796875 132.027344 C 213.847656 131.839844 214.890625 131.953125 214.949219 131.773438 C 215.003906 131.59375 214.609375 131.265625 214.667969 131.085938 C 214.730469 130.90625 214.617188 130.664062 214.679688 130.484375 C 214.738281 130.304688 215.144531 130.253906 215.210938 130.082031 C 215.296875 129.902344 215.71875 129.902344 215.800781 129.71875 C 215.890625 129.539062 215.539062 129.140625 215.632812 128.96875 C 215.730469 128.792969 216.066406 128.757812 216.167969 128.589844 C 216.269531 128.417969 215.757812 127.867188 215.863281 127.695312 C 215.972656 127.527344 216.167969 127.382812 216.28125 127.21875 C 216.421875 127.054688 216.578125 126.859375 216.722656 126.703125 C 216.871094 126.542969 217.167969 126.511719 217.324219 126.363281 C 217.484375 126.210938 217.785156 126.230469 217.957031 126.089844 C 218.152344 125.953125 218.207031 125.601562 218.410156 125.476562 C 218.613281 125.359375 218.929688 125.421875 219.136719 125.3125 C 219.320312 125.246094 219.484375 125.105469 219.675781 125.054688 C 219.867188 125 220.042969 124.863281 220.234375 124.820312 C 220.421875 124.773438 220.660156 124.929688 220.855469 124.898438 C 221.046875 124.878906 221.234375 124.835938 221.425781 124.828125 C 221.617188 124.820312 221.8125 125.117188 222.003906 125.117188 C 222.195312 125.117188 222.378906 125.050781 222.570312 125.054688 C 222.761719 125.058594 222.980469 124.476562 223.171875 124.488281 C 223.363281 124.5 223.582031 124.277344 223.773438 124.296875 C 223.964844 124.3125 224.15625 124.558594 224.347656 124.582031 C 224.539062 124.609375 224.730469 124.710938 224.914062 124.746094 C 225.105469 124.777344 225.164062 125.492188 225.347656 125.527344 C 225.535156 125.566406 225.757812 125.410156 225.945312 125.449219 C 226.128906 125.488281 226.484375 124.785156 226.667969 124.828125 C 226.855469 124.875 226.933594 125.414062 227.117188 125.453125 C 227.304688 125.5 227.398438 125.925781 227.585938 125.972656 C 227.769531 126.015625 228.089844 125.519531 228.277344 125.570312 C 228.460938 125.617188 228.636719 125.710938 228.820312 125.757812 C 229.007812 125.800781 229.171875 125.9375 229.355469 125.980469 C 229.542969 126.027344 229.671875 126.304688 229.855469 126.351562 C 230.042969 126.398438 230.324219 126.042969 230.507812 126.089844 C 230.695312 126.132812 230.898438 126.089844 231.082031 126.128906 C 231.269531 126.171875 231.425781 126.304688 231.609375 126.34375 C 231.796875 126.386719 231.925781 126.667969 232.105469 126.707031 C 232.289062 126.746094 232.527344 126.535156 232.710938 126.574219 C 232.898438 126.613281 233.113281 126.492188 233.296875 126.535156 C 233.484375 126.574219 233.503906 127.460938 233.691406 127.5 C 233.875 127.535156 234.214844 126.714844 234.398438 126.746094 C 234.585938 126.78125 234.664062 127.476562 234.847656 127.503906 C 235.035156 127.535156 235.292969 127.089844 235.476562 127.117188 C 235.664062 127.144531 235.882812 126.871094 236.074219 126.894531 C 236.257812 126.914062 236.410156 127.242188 236.597656 127.257812 C 236.78125 127.273438 236.984375 127.117188 237.171875 127.132812 C 237.363281 127.152344 237.492188 127.972656 237.683594 127.984375 C 237.867188 127.996094 238.085938 127.285156 238.273438 127.292969 C 238.457031 127.296875 238.648438 128.113281 238.839844 128.113281 C 239.027344 128.105469 239.207031 127.597656 239.394531 127.589844 C 239.582031 127.578125 239.738281 127.191406 239.929688 127.179688 C 240.117188 127.164062 240.3125 127.34375 240.503906 127.320312 C 240.6875 127.304688 240.929688 127.730469 241.117188 127.707031 C 241.300781 127.6875 241.480469 127.597656 241.667969 127.566406 C 241.851562 127.539062 242.003906 127.296875 242.191406 127.269531 C 242.371094 127.242188 242.449219 126.757812 242.625 126.71875 C 242.804688 126.679688 242.921875 126.527344 243.09375 126.484375 C 243.269531 126.433594 243.675781 127.175781 243.847656 127.117188 C 244.023438 127.0625 244.226562 127.066406 244.394531 127.003906 C 244.5625 126.945312 244.648438 126.640625 244.816406 126.574219 C 244.984375 126.503906 245.308594 126.808594 245.480469 126.734375 C 245.640625 126.664062 245.660156 126.234375 245.828125 126.164062 C 246.019531 126.078125 246.253906 126.066406 246.433594 125.972656 C 246.621094 125.875 247.003906 126.089844 247.175781 125.980469 C 247.351562 125.875 246.972656 124.890625 247.144531 124.777344 C 247.3125 124.660156 248.078125 125.386719 248.246094 125.261719 C 248.414062 125.140625 248.355469 124.710938 248.519531 124.582031 C 248.683594 124.457031 248.988281 124.507812 249.148438 124.378906 C 249.300781 124.261719 248.9375 123.519531 249.082031 123.390625 C 249.230469 123.261719 249.410156 123.199219 249.542969 123.058594 C 249.679688 122.917969 250.082031 123.296875 250.210938 123.148438 C 250.402344 123.234375 250.671875 122.722656 250.863281 122.804688 C 251.0625 122.890625 251.132812 123.253906 251.332031 123.335938 C 251.527344 123.40625 251.691406 123.621094 251.894531 123.675781 C 252.085938 123.734375 252.421875 123.183594 252.617188 123.226562 C 252.816406 123.273438 252.988281 123.273438 253.1875 123.304688 C 253.382812 123.339844 253.558594 123.355469 253.757812 123.378906 C 253.960938 123.402344 254.128906 123.542969 254.328125 123.554688 C 254.53125 123.566406 254.691406 124.269531 254.894531 124.273438 C 255.074219 124.277344 255.277344 124.457031 255.453125 124.453125 C 255.632812 124.449219 255.765625 123.480469 255.941406 123.46875 C 256.121094 123.457031 256.328125 123.886719 256.507812 123.867188 C 256.6875 123.851562 256.839844 123.65625 257.019531 123.632812 C 257.199219 123.609375 257.398438 123.75 257.570312 123.722656 C 257.75 123.699219 257.949219 123.847656 258.128906 123.824219 C 258.308594 123.796875 258.4375 123.453125 258.617188 123.417969 C 258.796875 123.390625 258.9375 123.195312 259.117188 123.160156 C 259.296875 123.125 259.53125 123.386719 259.707031 123.347656 C 259.886719 123.304688 259.953125 122.800781 260.128906 122.753906 C 260.3125 122.710938 260.695312 123.484375 260.886719 123.441406 C 261.074219 123.394531 261.152344 122.894531 261.335938 122.851562 C 261.523438 122.804688 261.707031 122.738281 261.894531 122.695312 C 262.078125 122.648438 262.191406 122.277344 262.378906 122.234375 C 262.5625 122.1875 262.84375 122.523438 263.03125 122.484375 C 263.214844 122.445312 263.460938 122.6875 263.652344 122.65625 C 263.84375 122.613281 263.957031 122.101562 264.144531 122.074219 C 264.324219 122.058594 264.546875 122.394531 264.734375 122.382812 C 264.914062 122.375 265.097656 122.503906 265.285156 122.496094 C 265.464844 122.492188 265.632812 121.789062 265.816406 121.789062 C 265.996094 121.789062 266.183594 122.375 266.367188 122.378906 C 266.546875 122.382812 266.710938 122.828125 266.890625 122.835938 C 267.070312 122.839844 267.257812 122.644531 267.4375 122.660156 C 267.617188 122.671875 267.835938 122.289062 268.015625 122.304688 C 268.207031 122.339844 268.28125 123.003906 268.472656 123.042969 C 268.664062 123.082031 269.074219 122.097656 269.265625 122.136719 C 269.457031 122.183594 269.425781 123.121094 269.617188 123.171875 C 269.808594 123.222656 270.066406 122.980469 270.253906 123.035156 C 270.4375 123.09375 270.535156 123.425781 270.71875 123.484375 C 270.90625 123.546875 271.230469 123.171875 271.417969 123.238281 C 271.601562 123.304688 271.742188 123.480469 271.921875 123.546875 C 272.089844 123.625 272.113281 123.980469 272.277344 124.058594 C 272.441406 124.136719 273.03125 123.394531 273.195312 123.480469 C 273.355469 123.566406 273.464844 123.777344 273.625 123.867188 C 273.785156 123.957031 273.457031 124.878906 273.613281 124.976562 C 273.773438 125.070312 274.316406 124.527344 274.476562 124.621094 C 274.632812 124.722656 274.941406 124.597656 275.09375 124.699219 C 275.246094 124.800781 275.183594 125.234375 275.328125 125.339844 C 275.480469 125.464844 275.566406 125.667969 275.71875 125.796875 C 275.863281 125.925781 275.902344 126.171875 276.042969 126.304688 C 276.183594 126.4375 276.292969 126.601562 276.429688 126.734375 C 276.570312 126.875 277.113281 126.617188 277.246094 126.765625 C 277.382812 126.902344 277.011719 127.503906 277.140625 127.65625 C 277.269531 127.804688 278.09375 127.382812 278.21875 127.535156 C 278.324219 127.679688 278.003906 128.15625 278.105469 128.308594 C 278.207031 128.460938 278.414062 128.539062 278.511719 128.691406 C 278.605469 128.84375 278.476562 129.140625 278.566406 129.292969 C 278.664062 129.449219 279.269531 129.308594 279.355469 129.46875 C 279.445312 129.625 279.570312 129.777344 279.652344 129.933594 C 279.738281 130.089844 279.828125 130.265625 279.910156 130.429688 C 279.988281 130.59375 279.664062 130.957031 279.742188 131.121094 C 279.816406 131.304688 279.871094 131.496094 279.9375 131.675781 C 280.007812 131.863281 280.121094 132.03125 280.175781 132.222656 C 280.238281 132.40625 280.613281 132.507812 280.671875 132.695312 C 280.726562 132.886719 280.160156 133.246094 280.210938 133.4375 C 280.261719 133.628906 280.980469 133.65625 281.023438 133.847656 C 281.070312 134.039062 281.03125 134.261719 281.070312 134.453125 C 281.109375 134.644531 280.574219 134.941406 280.609375 135.132812 C 280.625 135.320312 280.871094 135.476562 280.882812 135.664062 C 280.894531 135.847656 280.960938 136.035156 280.972656 136.21875 C 280.980469 136.40625 280.921875 136.597656 280.921875 136.78125 C 280.929688 136.96875 280.5 137.152344 280.496094 137.339844 C 280.496094 137.523438 280.359375 137.691406 280.355469 137.882812 C 280.351562 138.070312 280.367188 138.242188 280.351562 138.429688 C 280.339844 138.613281 280.675781 138.816406 280.660156 139 C 280.625 139.203125 281.109375 139.507812 281.0625 139.710938 C 281.023438 139.914062 280.480469 140.015625 280.433594 140.214844 C 280.394531 140.390625 281.023438 140.664062 281 140.847656 C 280.980469 141.027344 280.878906 141.136719 280.871094 141.316406 C 280.867188 141.496094 280.769531 141.632812 280.78125 141.8125 C 280.792969 141.992188 280.726562 142.144531 280.753906 142.320312 C 280.789062 142.492188 280.769531 142.648438 280.820312 142.824219 C 280.871094 142.992188 280.792969 143.191406 280.867188 143.351562 C 280.941406 143.515625 280.832031 143.761719 280.929688 143.921875 C 281.023438 144.101562 281.035156 144.363281 281.152344 144.523438 C 281.277344 144.683594 281.585938 144.703125 281.734375 144.84375 C 281.878906 144.976562 282.214844 144.871094 282.390625 144.984375 C 282.542969 145.125 282.726562 145.167969 282.894531 145.277344 C 283.066406 145.386719 283.097656 145.667969 283.289062 145.746094 C 283.476562 145.828125 283.542969 146.34375 283.746094 146.390625 C 283.917969 146.429688 284.183594 146.046875 284.363281 146.066406 C 284.542969 146.089844 284.707031 146.230469 284.886719 146.242188 C 285.066406 146.25 285.234375 145.976562 285.414062 145.96875 C 285.59375 145.957031 285.746094 145.945312 285.925781 145.917969 C 286.105469 145.886719 286.472656 146.585938 286.640625 146.535156 C 286.816406 146.484375 286.726562 145.675781 286.886719 145.597656 C 287.050781 145.523438 287.085938 145.316406 287.234375 145.214844 C 287.40625 145.105469 287.898438 145.464844 288.0625 145.34375 C 288.21875 145.21875 288.613281 145.304688 288.757812 145.164062 C 288.90625 145.023438 288.800781 144.601562 288.929688 144.445312 C 289.058594 144.285156 288.777344 143.859375 288.882812 143.683594 C 288.988281 143.511719 289.371094 143.503906 289.453125 143.320312 C 289.53125 143.132812 289.609375 142.941406 289.660156 142.746094 C 289.703125 142.566406 289.882812 142.414062 289.921875 142.234375 C 289.960938 142.054688 289.46875 141.769531 289.5 141.582031 C 289.535156 141.402344 290.292969 141.351562 290.324219 141.167969 C 290.355469 140.988281 290.25 140.773438 290.277344 140.59375 C 290.304688 140.40625 290.574219 140.25 290.597656 140.070312 C 290.621094 139.882812 290.523438 139.683594 290.542969 139.496094 C 290.558594 139.3125 290.445312 139.109375 290.464844 138.921875 C 290.480469 138.738281 290.734375 138.5625 290.746094 138.378906 C 290.753906 138.191406 289.816406 137.96875 289.820312 137.78125 C 289.828125 137.597656 290.890625 137.433594 290.890625 137.246094 C 290.890625 137.046875 290.464844 136.835938 290.464844 136.636719 C 290.457031 136.433594 290.199219 136.242188 290.1875 136.039062 C 290.175781 135.835938 289.773438 135.667969 289.753906 135.464844 C 289.738281 135.261719 290.0625 135.039062 290.046875 134.835938 C 290.023438 134.632812 289.839844 134.460938 289.8125 134.257812 C 289.789062 134.054688 290.417969 133.769531 290.382812 133.566406 C 290.355469 133.363281 289.789062 133.246094 289.753906 133.046875 C 289.722656 132.847656 289.953125 132.605469 289.914062 132.40625 C 289.871094 132.210938 290.023438 131.96875 289.984375 131.773438 C 289.945312 131.59375 289.820312 131.425781 289.78125 131.25 C 289.738281 131.070312 289.863281 130.84375 289.8125 130.664062 C 289.761719 130.484375 289.160156 130.46875 289.109375 130.292969 C 289.058594 130.121094 289.613281 129.75 289.558594 129.574219 C 289.5 129.398438 289.203125 129.300781 289.140625 129.125 C 289.082031 128.949219 288.800781 128.859375 288.730469 128.6875 C 288.664062 128.511719 289.164062 128.117188 289.097656 127.949219 C 289.03125 127.78125 288.164062 127.933594 288.089844 127.765625 C 288.019531 127.597656 288.507812 127.191406 288.433594 127.023438 C 288.359375 126.855469 287.917969 126.847656 287.84375 126.679688 C 287.757812 126.492188 287.332031 126.476562 287.242188 126.292969 C 287.152344 126.105469 287.65625 125.632812 287.5625 125.453125 C 287.464844 125.273438 287.234375 125.160156 287.136719 124.988281 C 287.035156 124.808594 287.335938 124.386719 287.234375 124.210938 C 287.128906 124.039062 286.945312 123.898438 286.835938 123.722656 C 286.726562 123.554688 286.320312 123.566406 286.207031 123.402344 C 286.089844 123.234375 286.105469 122.96875 285.984375 122.800781 C 285.859375 122.636719 285.195312 122.886719 285.070312 122.722656 C 284.949219 122.558594 284.839844 122.394531 284.71875 122.238281 C 284.59375 122.082031 284.667969 121.765625 284.539062 121.609375 C 284.410156 121.453125 284.679688 120.960938 284.542969 120.804688 C 284.410156 120.652344 284.347656 120.421875 284.210938 120.269531 C 284.078125 120.117188 283.808594 120.078125 283.667969 119.933594 C 283.527344 119.789062 283.035156 119.984375 282.894531 119.839844 C 282.75 119.699219 282.976562 119.164062 282.824219 119.023438 C 282.671875 118.886719 282.3125 118.984375 282.15625 118.855469 C 282.003906 118.726562 281.980469 118.4375 281.828125 118.308594 C 281.675781 118.183594 281.132812 118.546875 280.972656 118.421875 C 280.816406 118.296875 281.152344 117.539062 280.992188 117.414062 C 280.832031 117.296875 280.679688 117.144531 280.519531 117.03125 C 280.355469 116.914062 279.78125 117.382812 279.617188 117.269531 C 279.457031 117.15625 279.6875 116.449219 279.519531 116.339844 C 279.347656 116.234375 278.730469 116.839844 278.5625 116.742188 C 278.394531 116.640625 278.386719 116.261719 278.214844 116.167969 C 278.039062 116.066406 277.859375 115.992188 277.679688 115.902344 C 277.503906 115.808594 277.550781 115.277344 277.371094 115.1875 C 277.191406 115.097656 276.859375 115.308594 276.679688 115.222656 C 276.5 115.136719 276.492188 114.660156 276.308594 114.574219 C 276.128906 114.492188 275.648438 115.078125 275.464844 114.996094 C 275.277344 114.917969 274.980469 115.15625 274.789062 115.082031 C 274.605469 115.007812 274.53125 114.65625 274.347656 114.585938 C 274.160156 114.519531 273.945312 114.53125 273.761719 114.46875 C 273.570312 114.402344 273.625 113.585938 273.433594 113.523438 C 273.242188 113.464844 272.78125 114.304688 272.59375 114.253906 C 272.414062 114.203125 272.394531 113.597656 272.214844 113.554688 C 272.035156 113.507812 271.945312 113.085938 271.765625 113.046875 C 271.585938 113.007812 271.378906 113.042969 271.199219 113.003906 C 271.019531 112.960938 270.691406 113.660156 270.511719 113.625 C 270.332031 113.59375 270.152344 113.582031 269.972656 113.554688 C 269.792969 113.523438 269.640625 113.324219 269.457031 113.300781 C 269.269531 113.273438 269.050781 113.605469 268.871094 113.582031 C 268.683594 113.558594 268.574219 112.96875 268.386719 112.953125 C 268.203125 112.933594 268.039062 112.710938 267.851562 112.691406 C 267.667969 112.675781 267.464844 112.917969 267.28125 112.90625 C 267.078125 112.894531 266.898438 112.417969 266.695312 112.410156 C 266.492188 112.40625 266.277344 113.355469 266.082031 113.355469 C 265.878906 113.355469 265.671875 112.5625 265.476562 112.570312 C 265.273438 112.574219 265.085938 112.878906 264.886719 112.890625 C 264.683594 112.902344 264.484375 112.941406 264.289062 112.957031 C 264.09375 112.972656 263.839844 112.511719 263.640625 112.535156 C 263.445312 112.558594 263.226562 112.523438 263.03125 112.546875 C 262.832031 112.574219 262.742188 113.382812 262.539062 113.414062 C 262.34375 113.441406 262.164062 113.558594 261.96875 113.59375 C 261.769531 113.625 261.539062 113.445312 261.34375 113.484375 C 261.152344 113.519531 260.898438 113.242188 260.707031 113.28125 C 260.515625 113.324219 260.265625 113.085938 260.074219 113.132812 C 259.882812 113.175781 259.785156 113.621094 259.601562 113.664062 C 259.410156 113.710938 259.21875 113.726562 259.027344 113.777344 C 258.839844 113.824219 258.679688 113.996094 258.492188 114.042969 C 258.300781 114.085938 258.15625 114.296875 257.964844 114.339844 C 257.773438 114.386719 257.457031 113.875 257.273438 113.914062 C 257.082031 113.957031 257.03125 114.632812 256.839844 114.671875 C 256.648438 114.710938 256.425781 114.621094 256.234375 114.65625 C 256.070312 114.671875 255.914062 115.054688 255.75 115.066406 C 255.585938 115.070312 255.402344 114.65625 255.238281 114.65625 C 255.074219 114.65625 254.941406 114.328125 254.78125 114.316406 C 254.640625 114.285156 254.5 114.402344 254.367188 114.355469 C 254.21875 114.277344 253.871094 114.542969 253.730469 114.453125 C 253.726562 114.445312 253.957031 114.160156 253.949219 114.15625 C 253.988281 113.925781 254.449219 113.675781 254.445312 113.445312 C 254.441406 113.214844 254.460938 112.929688 254.410156 112.699219 C 254.402344 112.492188 254.332031 112.25 254.289062 112.046875 C 254.242188 111.84375 254.160156 111.558594 254.082031 111.367188 C 254 111.179688 253.292969 111.277344 253.179688 111.097656 C 253.085938 110.917969 252.925781 110.804688 252.804688 110.648438 C 252.679688 110.484375 252.535156 110.40625 252.382812 110.269531 C 252.234375 110.136719 252.144531 109.957031 251.976562 109.84375 C 251.824219 109.703125 251.90625 109.234375 251.734375 109.125 C 251.566406 109.011719 251.394531 108.792969 251.203125 108.710938 C 251.015625 108.632812 250.683594 108.902344 250.480469 108.859375 C 250.308594 108.820312 250.132812 108.757812 249.960938 108.730469 C 249.78125 108.707031 249.605469 108.640625 249.425781 108.632812 C 249.246094 108.628906 249.078125 108.953125 248.898438 108.964844 C 248.71875 108.976562 248.558594 108.960938 248.386719 108.988281 C 248.207031 109.015625 248.003906 108.859375 247.828125 108.910156 C 247.65625 108.960938 247.507812 109.0625 247.34375 109.132812 C 247.183594 109.207031 247.292969 109.691406 247.144531 109.785156 C 247.003906 109.875 246.570312 109.511719 246.441406 109.613281 C 246.304688 109.714844 246.070312 109.703125 245.953125 109.816406 C 245.804688 109.914062 246.164062 110.558594 246.050781 110.679688 Z M 246.050781 110.679688 " fill-opacity="1" fill-rule="nonzero"/></g><g clip-path="url(#21ba06345c)"><g clip-path="url(#9badf9490f)"><path fill="#ffc107" d="M 98.433594 159.375 L 154.683594 159.375 L 154.683594 215.625 L 98.433594 215.625 Z M 98.433594 159.375 " fill-opacity="1" fill-rule="nonzero"/></g></g><g clip-path="url(#f237e38ac5)"><path fill="#8bc34a" d="M 127.78125 110.679688 C 127.941406 110.796875 128.117188 110.878906 128.257812 111.019531 C 128.402344 111.15625 128.550781 111.203125 128.671875 111.359375 C 128.796875 111.519531 129.683594 111.226562 129.78125 111.398438 C 129.859375 111.585938 129.386719 112.03125 129.472656 112.21875 C 129.550781 112.40625 129.578125 112.609375 129.664062 112.792969 C 129.714844 112.972656 129.675781 113.136719 129.703125 113.316406 C 129.730469 113.496094 129.871094 113.652344 129.875 113.835938 C 129.882812 114.019531 130.246094 114.222656 130.230469 114.402344 C 130.214844 114.582031 129.664062 114.707031 129.628906 114.890625 C 129.628906 114.976562 130.285156 115.027344 130.292969 115.109375 C 130.328125 115.238281 129.511719 115.632812 129.550781 115.761719 C 129.664062 115.976562 130.527344 115.769531 130.664062 115.976562 C 130.789062 116.117188 130.371094 116.734375 130.507812 116.871094 C 130.640625 117.003906 131.070312 116.832031 131.207031 116.953125 C 131.40625 117.082031 131.308594 117.695312 131.511719 117.8125 C 131.714844 117.933594 132.03125 117.949219 132.238281 118.054688 C 132.394531 118.113281 132.761719 117.628906 132.921875 117.679688 C 133.085938 117.722656 133.265625 117.652344 133.429688 117.691406 C 133.59375 117.730469 133.703125 117.925781 133.867188 117.960938 C 134.046875 117.976562 134.222656 117.886719 134.402344 117.894531 C 134.582031 117.902344 134.75 118.253906 134.929688 118.257812 C 135.109375 118.257812 135.285156 117.589844 135.464844 117.582031 C 135.644531 117.578125 135.839844 118.207031 136.019531 118.203125 C 136.199219 118.191406 136.347656 117.683594 136.527344 117.671875 C 136.707031 117.65625 136.992188 118.617188 137.171875 118.601562 C 137.363281 118.566406 137.472656 117.925781 137.664062 117.894531 C 137.855469 117.859375 138.140625 118.320312 138.332031 118.28125 C 138.523438 118.242188 138.691406 118.082031 138.882812 118.039062 C 139.074219 118 139.269531 117.976562 139.460938 117.933594 C 139.652344 117.886719 139.871094 117.972656 140.0625 117.925781 C 140.253906 117.882812 140.390625 117.613281 140.574219 117.5625 C 140.765625 117.515625 140.949219 117.464844 141.140625 117.414062 C 141.328125 117.371094 141.417969 116.914062 141.601562 116.871094 C 141.789062 116.820312 142.09375 117.210938 142.277344 117.160156 C 142.464844 117.113281 142.621094 116.949219 142.8125 116.898438 C 142.996094 116.851562 143.234375 116.988281 143.425781 116.941406 C 143.617188 116.898438 143.746094 116.632812 143.9375 116.589844 C 144.128906 116.542969 144.335938 116.601562 144.527344 116.554688 C 144.722656 116.511719 144.898438 116.359375 145.09375 116.320312 C 145.292969 116.273438 145.476562 116.148438 145.671875 116.109375 C 145.875 116.070312 146 115.632812 146.203125 115.597656 C 146.402344 115.566406 146.71875 116.183594 146.921875 116.148438 C 147.125 116.117188 147.191406 115.246094 147.394531 115.210938 C 147.597656 115.183594 147.910156 115.929688 148.113281 115.902344 C 148.316406 115.875 148.421875 115.128906 148.625 115.105469 C 148.828125 115.078125 149.160156 116.105469 149.359375 116.082031 C 149.5625 116.058594 149.6875 115.308594 149.894531 115.285156 C 150.101562 115.265625 150.3125 115.257812 150.519531 115.238281 C 150.726562 115.226562 150.953125 115.648438 151.15625 115.644531 C 151.363281 115.636719 151.558594 115.492188 151.765625 115.492188 C 151.976562 115.492188 152.199219 114.917969 152.40625 114.925781 C 152.617188 114.9375 152.796875 115.453125 153.003906 115.46875 C 153.207031 115.488281 153.371094 115.800781 153.570312 115.824219 C 153.773438 115.847656 153.941406 116.027344 154.140625 116.050781 C 154.335938 116.078125 154.691406 115.046875 154.886719 115.082031 C 155.082031 115.117188 155.191406 115.734375 155.386719 115.773438 C 155.585938 115.8125 155.796875 115.785156 155.988281 115.828125 C 156.1875 115.875 156.457031 115.660156 156.648438 115.710938 C 156.835938 115.769531 157.074219 115.757812 157.265625 115.820312 C 157.457031 115.878906 157.636719 116.019531 157.828125 116.097656 C 158 116.171875 158.039062 116.589844 158.214844 116.660156 C 158.390625 116.734375 158.625 116.671875 158.800781 116.75 C 158.972656 116.832031 158.984375 117.246094 159.160156 117.332031 C 159.332031 117.414062 159.683594 117.132812 159.851562 117.222656 C 160.019531 117.3125 159.839844 117.984375 159.996094 118.082031 C 160.15625 118.179688 160.683594 117.691406 160.835938 117.796875 C 160.988281 117.898438 161.09375 118.074219 161.246094 118.183594 C 161.390625 118.292969 161.660156 118.253906 161.808594 118.363281 C 161.953125 118.476562 162.089844 118.613281 162.234375 118.730469 C 162.375 118.847656 162.070312 119.5 162.210938 119.617188 C 162.351562 119.738281 163.179688 119.097656 163.3125 119.226562 C 163.449219 119.355469 163.253906 119.84375 163.382812 119.972656 C 163.511719 120.109375 163.363281 120.496094 163.488281 120.636719 C 163.613281 120.777344 164.246094 120.46875 164.371094 120.609375 C 164.488281 120.75 163.859375 121.507812 163.976562 121.652344 C 164.09375 121.800781 164.921875 121.390625 165.035156 121.535156 C 165.148438 121.683594 165.359375 121.765625 165.46875 121.917969 C 165.578125 122.070312 165.136719 122.613281 165.242188 122.765625 C 165.347656 122.917969 166.007812 122.703125 166.113281 122.863281 C 166.214844 123.019531 165.535156 123.667969 165.628906 123.828125 C 165.726562 123.992188 166.320312 123.855469 166.410156 124.019531 C 166.5 124.183594 166.574219 124.363281 166.660156 124.53125 C 166.742188 124.699219 166.597656 124.980469 166.675781 125.148438 C 166.753906 125.320312 166.855469 125.476562 166.929688 125.652344 C 167 125.820312 167.34375 125.875 167.410156 126.042969 C 167.484375 126.210938 167.710938 126.324219 167.777344 126.492188 C 167.84375 126.664062 167.410156 127.039062 167.480469 127.207031 C 167.546875 127.382812 168.0625 127.382812 168.125 127.550781 C 168.195312 127.726562 167.648438 128.117188 167.710938 128.292969 C 167.773438 128.46875 168.210938 128.507812 168.265625 128.679688 C 168.324219 128.855469 168.753906 128.910156 168.8125 129.089844 C 168.867188 129.265625 168.261719 129.648438 168.316406 129.820312 C 168.367188 129.996094 168.175781 130.238281 168.226562 130.417969 C 168.277344 130.597656 168.710938 130.664062 168.753906 130.84375 C 168.800781 131.03125 169.183594 131.132812 169.226562 131.316406 C 169.273438 131.503906 169.535156 131.636719 169.578125 131.824219 C 169.617188 132.007812 169.304688 132.273438 169.347656 132.457031 C 169.386719 132.644531 169.109375 132.890625 169.148438 133.078125 C 169.1875 133.261719 169.617188 133.367188 169.65625 133.554688 C 169.695312 133.738281 169.257812 134.019531 169.289062 134.207031 C 169.324219 134.390625 169.53125 134.542969 169.566406 134.730469 C 169.597656 134.914062 169.347656 135.183594 169.386719 135.371094 C 169.453125 135.578125 170.109375 135.644531 170.136719 135.855469 C 170.167969 136.066406 169.808594 136.292969 169.796875 136.5 C 169.785156 136.707031 169.777344 136.90625 169.726562 137.113281 C 169.71875 137.320312 169.847656 137.546875 169.800781 137.75 C 169.757812 137.949219 169.671875 138.128906 169.59375 138.320312 C 169.515625 138.507812 169.214844 138.570312 169.105469 138.742188 C 169.007812 138.921875 169.082031 139.191406 168.964844 139.351562 C 168.839844 139.511719 169.15625 140.125 169.003906 140.265625 C 168.855469 140.402344 168.09375 139.824219 167.917969 139.933594 C 167.765625 140.074219 168.113281 140.941406 167.945312 141.046875 C 167.777344 141.160156 167.304688 140.800781 167.113281 140.878906 C 166.929688 140.957031 166.800781 141.296875 166.597656 141.339844 C 166.421875 141.378906 166.117188 140.664062 165.9375 140.6875 C 165.757812 140.710938 165.675781 141.746094 165.496094 141.75 C 165.316406 141.757812 165.140625 140.648438 164.960938 140.644531 C 164.78125 140.632812 164.5625 141.226562 164.386719 141.199219 C 164.207031 141.171875 164.015625 141.171875 163.84375 141.121094 C 163.667969 141.070312 163.34375 141.324219 163.179688 141.25 C 163.015625 141.175781 162.886719 140.929688 162.734375 140.828125 C 162.566406 140.722656 162.53125 140.390625 162.371094 140.265625 C 162.210938 140.144531 161.820312 140.246094 161.671875 140.105469 C 161.527344 139.964844 161.707031 139.492188 161.578125 139.339844 C 161.449219 139.183594 161.632812 138.839844 161.53125 138.671875 C 161.425781 138.496094 160.726562 138.636719 160.65625 138.445312 C 160.582031 138.261719 161.109375 137.898438 161.070312 137.699219 C 161.039062 137.511719 161.1875 137.289062 161.15625 137.101562 C 161.121094 136.917969 160.296875 136.878906 160.253906 136.691406 C 160.222656 136.507812 160.878906 136.179688 160.847656 135.996094 C 160.804688 135.808594 160.160156 135.742188 160.121094 135.554688 C 160.082031 135.371094 160.199219 135.152344 160.160156 134.964844 C 160.121094 134.78125 160.527344 134.492188 160.484375 134.308594 C 160.445312 134.121094 159.40625 134.167969 159.363281 133.980469 C 159.316406 133.796875 160.070312 133.417969 160.019531 133.234375 C 159.976562 133.046875 160.144531 132.800781 160.09375 132.617188 C 160.042969 132.429688 160.085938 132.210938 160.035156 132.027344 C 159.984375 131.839844 158.941406 131.953125 158.882812 131.773438 C 158.828125 131.59375 159.222656 131.265625 159.164062 131.085938 C 159.101562 130.90625 159.214844 130.664062 159.152344 130.484375 C 159.09375 130.304688 158.6875 130.253906 158.621094 130.082031 C 158.535156 129.902344 158.113281 129.902344 158.03125 129.71875 C 157.941406 129.539062 158.292969 129.140625 158.199219 128.96875 C 158.101562 128.792969 157.765625 128.757812 157.664062 128.589844 C 157.5625 128.417969 158.074219 127.867188 157.96875 127.695312 C 157.859375 127.527344 157.664062 127.382812 157.550781 127.21875 C 157.410156 127.054688 157.253906 126.859375 157.109375 126.703125 C 156.960938 126.542969 156.664062 126.511719 156.507812 126.363281 C 156.347656 126.210938 156.046875 126.230469 155.875 126.089844 C 155.679688 125.953125 155.625 125.601562 155.421875 125.476562 C 155.21875 125.359375 154.902344 125.421875 154.695312 125.3125 C 154.511719 125.246094 154.347656 125.105469 154.15625 125.054688 C 153.964844 125 153.789062 124.863281 153.601562 124.820312 C 153.410156 124.773438 153.171875 124.929688 152.976562 124.898438 C 152.785156 124.878906 152.597656 124.835938 152.40625 124.828125 C 152.21875 124.820312 152.019531 125.117188 151.828125 125.117188 C 151.636719 125.117188 151.453125 125.050781 151.261719 125.054688 C 151.070312 125.058594 150.851562 124.476562 150.660156 124.488281 C 150.46875 124.5 150.25 124.277344 150.058594 124.296875 C 149.867188 124.3125 149.675781 124.558594 149.484375 124.582031 C 149.292969 124.609375 149.101562 124.710938 148.917969 124.746094 C 148.726562 124.777344 148.667969 125.492188 148.484375 125.527344 C 148.296875 125.566406 148.074219 125.410156 147.886719 125.449219 C 147.703125 125.488281 147.347656 124.785156 147.164062 124.828125 C 146.976562 124.875 146.898438 125.414062 146.714844 125.453125 C 146.527344 125.5 146.433594 125.925781 146.246094 125.972656 C 146.0625 126.015625 145.742188 125.519531 145.554688 125.570312 C 145.371094 125.617188 145.195312 125.710938 145.011719 125.757812 C 144.824219 125.800781 144.660156 125.9375 144.476562 125.980469 C 144.289062 126.027344 144.160156 126.304688 143.976562 126.351562 C 143.789062 126.398438 143.507812 126.042969 143.324219 126.089844 C 143.136719 126.132812 142.9375 126.089844 142.75 126.128906 C 142.566406 126.171875 142.40625 126.304688 142.222656 126.34375 C 142.035156 126.386719 141.90625 126.667969 141.726562 126.707031 C 141.542969 126.746094 141.304688 126.535156 141.121094 126.574219 C 140.933594 126.613281 140.71875 126.492188 140.535156 126.535156 C 140.351562 126.574219 140.328125 127.460938 140.140625 127.5 C 139.957031 127.535156 139.617188 126.714844 139.433594 126.746094 C 139.246094 126.78125 139.167969 127.476562 138.984375 127.503906 C 138.796875 127.535156 138.539062 127.089844 138.355469 127.117188 C 138.167969 127.144531 137.949219 126.871094 137.757812 126.894531 C 137.574219 126.914062 137.421875 127.242188 137.234375 127.257812 C 137.050781 127.273438 136.847656 127.117188 136.660156 127.132812 C 136.472656 127.152344 136.339844 127.972656 136.148438 127.984375 C 135.964844 127.996094 135.746094 127.285156 135.558594 127.292969 C 135.375 127.296875 135.183594 128.113281 134.992188 128.113281 C 134.808594 128.105469 134.625 127.597656 134.4375 127.589844 C 134.25 127.578125 134.09375 127.191406 133.902344 127.179688 C 133.714844 127.164062 133.519531 127.34375 133.328125 127.320312 C 133.144531 127.304688 132.902344 127.730469 132.714844 127.707031 C 132.53125 127.6875 132.351562 127.597656 132.164062 127.566406 C 131.980469 127.539062 131.828125 127.296875 131.640625 127.269531 C 131.460938 127.242188 131.382812 126.757812 131.207031 126.71875 C 131.027344 126.679688 130.910156 126.527344 130.738281 126.484375 C 130.5625 126.433594 130.15625 127.175781 129.984375 127.117188 C 129.808594 127.0625 129.605469 127.066406 129.4375 127.003906 C 129.269531 126.945312 129.183594 126.640625 129.015625 126.574219 C 128.847656 126.503906 128.523438 126.808594 128.351562 126.734375 C 128.191406 126.664062 128.171875 126.234375 128.003906 126.164062 C 127.8125 126.078125 127.578125 126.066406 127.398438 125.972656 C 127.210938 125.875 126.828125 126.089844 126.65625 125.980469 C 126.480469 125.875 126.859375 124.890625 126.6875 124.777344 C 126.519531 124.660156 125.757812 125.386719 125.585938 125.261719 C 125.417969 125.140625 125.476562 124.710938 125.3125 124.582031 C 125.148438 124.457031 124.84375 124.507812 124.683594 124.378906 C 124.53125 124.261719 124.894531 123.519531 124.75 123.390625 C 124.605469 123.261719 124.421875 123.199219 124.289062 123.058594 C 124.152344 122.917969 123.75 123.296875 123.621094 123.148438 C 123.429688 123.234375 123.160156 122.722656 122.96875 122.804688 C 122.769531 122.890625 122.699219 123.253906 122.5 123.335938 C 122.304688 123.40625 122.140625 123.621094 121.9375 123.675781 C 121.746094 123.734375 121.410156 123.183594 121.214844 123.226562 C 121.015625 123.273438 120.84375 123.273438 120.644531 123.304688 C 120.449219 123.339844 120.273438 123.355469 120.074219 123.378906 C 119.871094 123.402344 119.703125 123.542969 119.503906 123.554688 C 119.300781 123.566406 119.140625 124.269531 118.9375 124.273438 C 118.757812 124.277344 118.554688 124.457031 118.378906 124.453125 C 118.199219 124.449219 118.066406 123.480469 117.890625 123.46875 C 117.710938 123.457031 117.503906 123.886719 117.324219 123.867188 C 117.144531 123.851562 116.992188 123.65625 116.8125 123.632812 C 116.632812 123.609375 116.433594 123.75 116.261719 123.722656 C 116.082031 123.699219 115.882812 123.847656 115.703125 123.824219 C 115.523438 123.796875 115.394531 123.453125 115.214844 123.417969 C 115.035156 123.390625 114.894531 123.195312 114.714844 123.160156 C 114.535156 123.125 114.300781 123.386719 114.125 123.347656 C 113.945312 123.304688 113.878906 122.800781 113.703125 122.753906 C 113.519531 122.710938 113.136719 123.484375 112.945312 123.441406 C 112.757812 123.394531 112.679688 122.894531 112.496094 122.851562 C 112.308594 122.804688 112.125 122.738281 111.9375 122.695312 C 111.753906 122.648438 111.640625 122.277344 111.453125 122.234375 C 111.269531 122.1875 110.988281 122.523438 110.800781 122.484375 C 110.617188 122.445312 110.371094 122.6875 110.179688 122.65625 C 109.988281 122.613281 109.875 122.101562 109.6875 122.074219 C 109.507812 122.058594 109.285156 122.394531 109.097656 122.382812 C 108.917969 122.375 108.734375 122.503906 108.546875 122.496094 C 108.367188 122.492188 108.199219 121.789062 108.015625 121.789062 C 107.835938 121.789062 107.648438 122.375 107.464844 122.378906 C 107.285156 122.382812 107.121094 122.828125 106.941406 122.835938 C 106.761719 122.839844 106.574219 122.644531 106.394531 122.660156 C 106.214844 122.671875 105.996094 122.289062 105.816406 122.304688 C 105.625 122.339844 105.550781 123.003906 105.359375 123.042969 C 105.167969 123.082031 104.757812 122.097656 104.566406 122.136719 C 104.378906 122.183594 104.40625 123.121094 104.214844 123.171875 C 104.023438 123.222656 103.765625 122.980469 103.578125 123.035156 C 103.394531 123.09375 103.296875 123.425781 103.113281 123.484375 C 102.925781 123.546875 102.601562 123.171875 102.414062 123.238281 C 102.230469 123.304688 102.089844 123.480469 101.910156 123.546875 C 101.742188 123.625 101.71875 123.980469 101.554688 124.058594 C 101.390625 124.136719 100.800781 123.394531 100.636719 123.480469 C 100.476562 123.566406 100.367188 123.777344 100.207031 123.867188 C 100.046875 123.957031 100.375 124.878906 100.21875 124.976562 C 100.058594 125.070312 99.515625 124.527344 99.355469 124.621094 C 99.199219 124.722656 98.890625 124.597656 98.738281 124.699219 C 98.585938 124.800781 98.648438 125.234375 98.503906 125.339844 C 98.351562 125.464844 98.265625 125.667969 98.113281 125.796875 C 97.96875 125.925781 97.929688 126.171875 97.789062 126.304688 C 97.648438 126.4375 97.542969 126.601562 97.402344 126.734375 C 97.261719 126.875 96.71875 126.617188 96.585938 126.765625 C 96.449219 126.902344 96.820312 127.503906 96.691406 127.65625 C 96.5625 127.804688 95.738281 127.382812 95.613281 127.535156 C 95.507812 127.679688 95.828125 128.15625 95.726562 128.308594 C 95.625 128.460938 95.417969 128.539062 95.320312 128.691406 C 95.226562 128.84375 95.355469 129.140625 95.265625 129.292969 C 95.167969 129.449219 94.5625 129.308594 94.476562 129.46875 C 94.386719 129.625 94.265625 129.777344 94.179688 129.933594 C 94.09375 130.089844 94.003906 130.265625 93.921875 130.429688 C 93.84375 130.59375 94.167969 130.957031 94.089844 131.121094 C 94.015625 131.304688 93.960938 131.496094 93.894531 131.675781 C 93.824219 131.863281 93.710938 132.03125 93.65625 132.222656 C 93.59375 132.40625 93.21875 132.507812 93.160156 132.695312 C 93.105469 132.886719 93.671875 133.246094 93.621094 133.4375 C 93.574219 133.628906 92.851562 133.65625 92.808594 133.847656 C 92.761719 134.039062 92.800781 134.261719 92.761719 134.453125 C 92.722656 134.644531 93.257812 134.941406 93.222656 135.132812 C 93.207031 135.320312 92.960938 135.476562 92.949219 135.664062 C 92.9375 135.847656 92.871094 136.035156 92.859375 136.21875 C 92.851562 136.40625 92.910156 136.597656 92.910156 136.78125 C 92.902344 136.96875 93.332031 137.152344 93.335938 137.339844 C 93.335938 137.523438 93.472656 137.691406 93.476562 137.882812 C 93.480469 138.070312 93.464844 138.242188 93.480469 138.429688 C 93.492188 138.613281 93.15625 138.816406 93.171875 139 C 93.207031 139.203125 92.722656 139.507812 92.769531 139.710938 C 92.808594 139.914062 93.351562 140.015625 93.398438 140.214844 C 93.4375 140.390625 92.808594 140.664062 92.832031 140.847656 C 92.851562 141.027344 92.953125 141.136719 92.960938 141.316406 C 92.964844 141.496094 93.0625 141.632812 93.050781 141.8125 C 93.039062 141.992188 93.105469 142.144531 93.078125 142.320312 C 93.042969 142.492188 93.0625 142.648438 93.011719 142.824219 C 92.960938 142.992188 93.039062 143.191406 92.964844 143.351562 C 92.890625 143.515625 93 143.761719 92.902344 143.921875 C 92.808594 144.101562 92.796875 144.363281 92.679688 144.523438 C 92.554688 144.683594 92.246094 144.703125 92.097656 144.84375 C 91.953125 144.976562 91.617188 144.871094 91.441406 144.984375 C 91.289062 145.125 91.105469 145.167969 90.9375 145.277344 C 90.765625 145.386719 90.734375 145.667969 90.542969 145.746094 C 90.355469 145.828125 90.289062 146.34375 90.085938 146.390625 C 89.914062 146.429688 89.648438 146.046875 89.46875 146.066406 C 89.289062 146.089844 89.125 146.230469 88.945312 146.242188 C 88.765625 146.25 88.597656 145.976562 88.417969 145.96875 C 88.238281 145.957031 88.085938 145.945312 87.90625 145.917969 C 87.726562 145.886719 87.359375 146.585938 87.191406 146.535156 C 87.015625 146.484375 87.109375 145.675781 86.945312 145.597656 C 86.78125 145.523438 86.746094 145.316406 86.597656 145.214844 C 86.425781 145.105469 85.933594 145.464844 85.769531 145.34375 C 85.613281 145.21875 85.21875 145.304688 85.074219 145.164062 C 84.925781 145.023438 85.03125 144.601562 84.902344 144.445312 C 84.773438 144.285156 85.054688 143.859375 84.949219 143.683594 C 84.84375 143.511719 84.460938 143.503906 84.382812 143.320312 C 84.300781 143.132812 84.222656 142.941406 84.171875 142.746094 C 84.128906 142.566406 83.949219 142.414062 83.910156 142.234375 C 83.871094 142.054688 84.363281 141.769531 84.332031 141.582031 C 84.296875 141.402344 83.539062 141.351562 83.507812 141.167969 C 83.476562 140.988281 83.582031 140.773438 83.554688 140.59375 C 83.527344 140.40625 83.257812 140.25 83.234375 140.070312 C 83.210938 139.882812 83.308594 139.683594 83.289062 139.496094 C 83.273438 139.3125 83.386719 139.109375 83.367188 138.921875 C 83.351562 138.738281 83.097656 138.5625 83.089844 138.378906 C 83.078125 138.191406 84.015625 137.96875 84.011719 137.78125 C 84.003906 137.597656 82.941406 137.433594 82.941406 137.246094 C 82.941406 137.046875 83.367188 136.835938 83.367188 136.636719 C 83.375 136.433594 83.632812 136.242188 83.644531 136.039062 C 83.65625 135.835938 84.0625 135.667969 84.078125 135.464844 C 84.09375 135.261719 83.769531 135.039062 83.785156 134.835938 C 83.808594 134.632812 83.992188 134.460938 84.019531 134.257812 C 84.042969 134.054688 83.414062 133.769531 83.449219 133.566406 C 83.476562 133.363281 84.042969 133.246094 84.078125 133.046875 C 84.109375 132.847656 83.878906 132.605469 83.921875 132.40625 C 83.960938 132.210938 83.808594 131.96875 83.847656 131.773438 C 83.886719 131.59375 84.011719 131.425781 84.050781 131.25 C 84.09375 131.070312 83.96875 130.84375 84.019531 130.664062 C 84.070312 130.484375 84.671875 130.46875 84.722656 130.292969 C 84.773438 130.121094 84.21875 129.75 84.273438 129.574219 C 84.332031 129.398438 84.628906 129.300781 84.691406 129.125 C 84.753906 128.949219 85.03125 128.859375 85.101562 128.6875 C 85.167969 128.511719 84.667969 128.117188 84.734375 127.949219 C 84.800781 127.78125 85.667969 127.933594 85.742188 127.765625 C 85.816406 127.597656 85.324219 127.191406 85.398438 127.023438 C 85.472656 126.855469 85.914062 126.847656 85.988281 126.679688 C 86.074219 126.492188 86.5 126.476562 86.589844 126.292969 C 86.679688 126.105469 86.175781 125.632812 86.269531 125.453125 C 86.367188 125.273438 86.597656 125.160156 86.695312 124.988281 C 86.796875 124.808594 86.496094 124.386719 86.597656 124.210938 C 86.703125 124.039062 86.886719 123.898438 86.996094 123.722656 C 87.109375 123.554688 87.511719 123.566406 87.625 123.402344 C 87.742188 123.234375 87.726562 122.96875 87.847656 122.800781 C 87.972656 122.636719 88.636719 122.886719 88.761719 122.722656 C 88.882812 122.558594 88.992188 122.394531 89.113281 122.238281 C 89.238281 122.082031 89.164062 121.765625 89.292969 121.609375 C 89.421875 121.453125 89.152344 120.960938 89.289062 120.804688 C 89.421875 120.652344 89.484375 120.421875 89.621094 120.269531 C 89.753906 120.117188 90.023438 120.078125 90.164062 119.933594 C 90.304688 119.789062 90.796875 119.984375 90.9375 119.839844 C 91.082031 119.699219 90.855469 119.164062 91.007812 119.023438 C 91.160156 118.886719 91.519531 118.984375 91.679688 118.855469 C 91.828125 118.726562 91.851562 118.4375 92.003906 118.308594 C 92.15625 118.183594 92.699219 118.546875 92.859375 118.421875 C 93.015625 118.296875 92.679688 117.539062 92.839844 117.414062 C 93 117.296875 93.152344 117.144531 93.3125 117.03125 C 93.476562 116.914062 94.050781 117.382812 94.214844 117.269531 C 94.375 117.15625 94.144531 116.449219 94.3125 116.339844 C 94.484375 116.234375 95.101562 116.839844 95.269531 116.742188 C 95.4375 116.640625 95.445312 116.261719 95.617188 116.167969 C 95.792969 116.066406 95.972656 115.992188 96.152344 115.902344 C 96.328125 115.808594 96.28125 115.277344 96.460938 115.1875 C 96.640625 115.097656 96.972656 115.308594 97.152344 115.222656 C 97.332031 115.136719 97.339844 114.660156 97.523438 114.574219 C 97.703125 114.492188 98.183594 115.078125 98.367188 114.996094 C 98.554688 114.917969 98.851562 115.15625 99.042969 115.082031 C 99.226562 115.007812 99.300781 114.65625 99.484375 114.585938 C 99.671875 114.519531 99.886719 114.53125 100.070312 114.46875 C 100.261719 114.402344 100.207031 113.585938 100.398438 113.523438 C 100.589844 113.464844 101.050781 114.304688 101.238281 114.253906 C 101.421875 114.203125 101.4375 113.597656 101.617188 113.554688 C 101.796875 113.507812 101.886719 113.085938 102.066406 113.046875 C 102.246094 113.007812 102.453125 113.042969 102.632812 113.003906 C 102.8125 112.960938 103.140625 113.660156 103.320312 113.625 C 103.5 113.59375 103.679688 113.582031 103.859375 113.554688 C 104.039062 113.523438 104.191406 113.324219 104.378906 113.300781 C 104.5625 113.273438 104.78125 113.605469 104.960938 113.582031 C 105.148438 113.558594 105.257812 112.96875 105.445312 112.953125 C 105.628906 112.933594 105.792969 112.710938 105.980469 112.691406 C 106.164062 112.675781 106.367188 112.917969 106.550781 112.90625 C 106.753906 112.894531 106.933594 112.417969 107.136719 112.410156 C 107.339844 112.40625 107.554688 113.355469 107.75 113.355469 C 107.953125 113.355469 108.160156 112.5625 108.355469 112.570312 C 108.558594 112.574219 108.746094 112.878906 108.949219 112.890625 C 109.148438 112.902344 109.347656 112.941406 109.542969 112.957031 C 109.738281 112.972656 109.992188 112.511719 110.191406 112.535156 C 110.386719 112.558594 110.605469 112.523438 110.800781 112.546875 C 111 112.574219 111.089844 113.382812 111.292969 113.414062 C 111.488281 113.441406 111.667969 113.558594 111.863281 113.59375 C 112.0625 113.625 112.292969 113.445312 112.488281 113.484375 C 112.679688 113.519531 112.933594 113.242188 113.125 113.28125 C 113.316406 113.324219 113.566406 113.085938 113.757812 113.132812 C 113.949219 113.175781 114.046875 113.621094 114.230469 113.664062 C 114.421875 113.710938 114.613281 113.726562 114.804688 113.777344 C 114.992188 113.824219 115.152344 113.996094 115.339844 114.042969 C 115.53125 114.085938 115.675781 114.296875 115.867188 114.339844 C 116.058594 114.386719 116.375 113.875 116.558594 113.914062 C 116.75 113.957031 116.800781 114.632812 116.992188 114.671875 C 117.183594 114.710938 117.40625 114.621094 117.597656 114.65625 C 117.761719 114.671875 117.917969 115.054688 118.082031 115.066406 C 118.246094 115.070312 118.429688 114.65625 118.59375 114.65625 C 118.757812 114.65625 118.890625 114.328125 119.050781 114.316406 C 119.191406 114.285156 119.332031 114.402344 119.464844 114.355469 C 119.613281 114.277344 119.960938 114.542969 120.101562 114.453125 C 120.105469 114.445312 119.875 114.160156 119.882812 114.15625 C 119.84375 113.925781 119.382812 113.675781 119.386719 113.445312 C 119.390625 113.214844 119.371094 112.929688 119.421875 112.699219 C 119.433594 112.492188 119.5 112.25 119.542969 112.046875 C 119.589844 111.84375 119.671875 111.558594 119.753906 111.367188 C 119.832031 111.179688 120.539062 111.277344 120.652344 111.097656 C 120.746094 110.917969 120.90625 110.804688 121.027344 110.648438 C 121.152344 110.484375 121.296875 110.40625 121.449219 110.269531 C 121.597656 110.136719 121.6875 109.957031 121.855469 109.84375 C 122.007812 109.703125 121.925781 109.234375 122.097656 109.125 C 122.265625 109.011719 122.4375 108.792969 122.628906 108.710938 C 122.816406 108.632812 123.148438 108.902344 123.351562 108.859375 C 123.523438 108.820312 123.699219 108.757812 123.871094 108.730469 C 124.050781 108.707031 124.226562 108.640625 124.40625 108.632812 C 124.585938 108.628906 124.753906 108.953125 124.933594 108.964844 C 125.113281 108.976562 125.273438 108.960938 125.445312 108.988281 C 125.625 109.015625 125.828125 108.859375 126.003906 108.910156 C 126.175781 108.960938 126.324219 109.0625 126.488281 109.132812 C 126.648438 109.207031 126.539062 109.691406 126.6875 109.785156 C 126.828125 109.875 127.261719 109.511719 127.390625 109.613281 C 127.527344 109.714844 127.761719 109.703125 127.882812 109.816406 C 128.027344 109.914062 127.667969 110.558594 127.78125 110.679688 Z M 127.78125 110.679688 " fill-opacity="1" fill-rule="nonzero"/></g><g clip-path="url(#3c6044ec63)"><g clip-path="url(#edd3c73ab8)"><path fill="#ffc107" d="M 219.15625 159.375 L 275.40625 159.375 L 275.40625 215.625 L 219.15625 215.625 Z M 219.15625 159.375 " fill-opacity="1" fill-rule="nonzero"/></g></g><g clip-path="url(#85ea31bf0d)"><path fill="#8bc34a" d="M 126.558594 225.28125 C 105.378906 225.28125 88.148438 208.050781 88.148438 186.871094 C 88.148438 165.691406 105.378906 148.460938 126.558594 148.460938 C 147.738281 148.460938 164.96875 165.691406 164.96875 186.871094 C 164.96875 208.050781 147.738281 225.28125 126.558594 225.28125 Z M 126.558594 146.582031 C 104.34375 146.582031 86.269531 164.65625 86.269531 186.871094 C 86.269531 209.085938 104.34375 227.160156 126.558594 227.160156 C 148.773438 227.160156 166.847656 209.085938 166.847656 186.871094 C 166.847656 164.65625 148.773438 146.582031 126.558594 146.582031 " fill-opacity="1" fill-rule="nonzero"/></g><g clip-path="url(#5068e3df80)"><path fill="#8bc34a" d="M 126.558594 147.925781 C 105.085938 147.925781 87.613281 165.398438 87.613281 186.871094 C 87.613281 208.347656 105.085938 225.816406 126.558594 225.816406 C 148.035156 225.816406 165.503906 208.347656 165.503906 186.871094 C 165.503906 165.398438 148.035156 147.925781 126.558594 147.925781 Z M 126.558594 226.625 C 104.640625 226.625 86.804688 208.792969 86.804688 186.871094 C 86.804688 164.949219 104.640625 147.117188 126.558594 147.117188 C 148.480469 147.117188 166.3125 164.949219 166.3125 186.871094 C 166.3125 208.792969 148.480469 226.625 126.558594 226.625 " fill-opacity="1" fill-rule="nonzero"/></g><g clip-path="url(#c1244055c3)"><path fill="#8bc34a" d="M 247.28125 226.5 C 226.101562 226.5 208.871094 209.269531 208.871094 188.089844 C 208.871094 166.910156 226.101562 149.679688 247.28125 149.679688 C 268.460938 149.679688 285.695312 166.910156 285.695312 188.089844 C 285.695312 209.269531 268.460938 226.5 247.28125 226.5 Z M 247.28125 147.800781 C 225.066406 147.800781 206.992188 165.875 206.992188 188.089844 C 206.992188 210.304688 225.066406 228.378906 247.28125 228.378906 C 269.496094 228.378906 287.570312 210.304688 287.570312 188.089844 C 287.570312 165.875 269.496094 147.800781 247.28125 147.800781 " fill-opacity="1" fill-rule="nonzero"/></g><g clip-path="url(#b47d987a9a)"><path fill="#8bc34a" d="M 247.28125 149.140625 C 225.808594 149.140625 208.335938 166.613281 208.335938 188.089844 C 208.335938 209.5625 225.808594 227.035156 247.28125 227.035156 C 268.757812 227.035156 286.230469 209.5625 286.230469 188.089844 C 286.230469 166.613281 268.757812 149.140625 247.28125 149.140625 Z M 247.28125 227.84375 C 225.363281 227.84375 207.527344 210.007812 207.527344 188.089844 C 207.527344 166.167969 225.363281 148.335938 247.28125 148.335938 C 269.203125 148.335938 287.035156 166.167969 287.035156 188.089844 C 287.035156 210.007812 269.203125 227.84375 247.28125 227.84375 " fill-opacity="1" fill-rule="nonzero"/></g><path stroke-linecap="butt" transform="matrix(0.749708, 0.0209149, -0.0209149, 0.749708, 165.793441, 182.767942)" fill="none" stroke-linejoin="miter" d="M 0.00167798 5.499004 L 58.211871 5.500721 " stroke="#8bc34a" stroke-width="11" stroke-opacity="1" stroke-miterlimit="4"/><g fill="#f0f4c3" fill-opacity="1"><g transform="translate(113.016501, 204.058434)"><g><path d="M 4.109375 -17.484375 L 21.921875 -27.859375 L 23.9375 -24.34375 L 9 -15.84375 L 23.9375 -7.359375 L 21.921875 -3.84375 L 4.109375 -14.203125 Z M 4.109375 -17.484375 "/></g></g></g><g fill="#f0f4c3" fill-opacity="1"><g transform="translate(234.936596, 204.058434)"><g><path d="M 22.9375 -17.484375 L 22.9375 -14.203125 L 5.125 -3.84375 L 3.109375 -7.359375 L 18.046875 -15.84375 L 3.109375 -24.34375 L 5.125 -27.859375 Z M 22.9375 -17.484375 "/></g></g></g></svg>