<svg xmlns="http://www.w3.org/2000/svg" xmlns:xlink="http://www.w3.org/1999/xlink" width="500" zoomAndPan="magnify" viewBox="0 0 375 374.999991" height="500" preserveAspectRatio="xMidYMid meet" version="1.0"><defs><g/><clipPath id="06db29567f"><path d="M 218.316406 89.355469 L 305.316406 89.355469 L 305.316406 127.605469 L 218.316406 127.605469 Z M 218.316406 89.355469 " clip-rule="nonzero"/></clipPath><clipPath id="95f75e4429"><path d="M 72.878906 151.5 L 153.5625 151.5 L 153.5625 232.183594 L 72.878906 232.183594 Z M 72.878906 151.5 " clip-rule="nonzero"/></clipPath><clipPath id="f8e34019a6"><path d="M 113.222656 151.5 C 90.941406 151.5 72.878906 169.5625 72.878906 191.839844 C 72.878906 214.121094 90.941406 232.183594 113.222656 232.183594 C 135.5 232.183594 153.5625 214.121094 153.5625 191.839844 C 153.5625 169.5625 135.5 151.5 113.222656 151.5 Z M 113.222656 151.5 " clip-rule="nonzero"/></clipPath><clipPath id="3328f0f591"><path d="M 69.671875 89.355469 L 156.390625 89.355469 L 156.390625 127.605469 L 69.671875 127.605469 Z M 69.671875 89.355469 " clip-rule="nonzero"/></clipPath><clipPath id="1f360b5282"><path d="M 58.125 136.746094 L 168.375 136.746094 L 168.375 246.996094 L 58.125 246.996094 Z M 58.125 136.746094 " clip-rule="nonzero"/></clipPath><clipPath id="035fa5d644"><path d="M 58.125 137 L 168 137 L 168 246.996094 L 58.125 246.996094 Z M 58.125 137 " clip-rule="nonzero"/></clipPath><clipPath id="6d40745c4c"><path d="M 221.4375 151.5 L 302.121094 151.5 L 302.121094 232.183594 L 221.4375 232.183594 Z M 221.4375 151.5 " clip-rule="nonzero"/></clipPath><clipPath id="1874ddab54"><path d="M 261.777344 151.5 C 239.5 151.5 221.4375 169.5625 221.4375 191.839844 C 221.4375 214.121094 239.5 232.183594 261.777344 232.183594 C 284.058594 232.183594 302.121094 214.121094 302.121094 191.839844 C 302.121094 169.5625 284.058594 151.5 261.777344 151.5 Z M 261.777344 151.5 " clip-rule="nonzero"/></clipPath><clipPath id="b5294debfa"><path d="M 206.683594 136.746094 L 316.933594 136.746094 L 316.933594 246.996094 L 206.683594 246.996094 Z M 206.683594 136.746094 " clip-rule="nonzero"/></clipPath><clipPath id="b4c4a86cb5"><path d="M 207 137 L 316.933594 137 L 316.933594 246.996094 L 207 246.996094 Z M 207 137 " clip-rule="nonzero"/></clipPath></defs><g clip-path="url(#06db29567f)"><path fill="#8bc34a" d="M 260.730469 91.699219 C 260.570312 91.816406 260.394531 91.894531 260.253906 92.035156 C 260.109375 92.175781 259.960938 92.222656 259.835938 92.378906 C 259.714844 92.535156 258.824219 92.246094 258.730469 92.417969 C 258.652344 92.605469 259.125 93.046875 259.039062 93.238281 C 258.960938 93.425781 258.933594 93.628906 258.847656 93.8125 C 258.796875 93.992188 258.835938 94.15625 258.808594 94.335938 C 258.78125 94.515625 258.640625 94.671875 258.636719 94.851562 C 258.628906 95.039062 258.265625 95.242188 258.28125 95.421875 C 258.296875 95.601562 258.847656 95.722656 258.882812 95.910156 C 258.882812 95.992188 258.222656 96.042969 258.21875 96.128906 C 258.183594 96.257812 259 96.652344 258.960938 96.78125 C 258.847656 96.996094 257.984375 96.785156 257.847656 96.996094 C 257.722656 97.136719 258.140625 97.753906 258.003906 97.886719 C 257.871094 98.023438 257.441406 97.847656 257.300781 97.972656 C 257.105469 98.101562 257.203125 98.714844 257 98.832031 C 256.796875 98.949219 256.480469 98.96875 256.273438 99.074219 C 256.117188 99.128906 255.75 98.648438 255.585938 98.699219 C 255.425781 98.742188 255.246094 98.667969 255.082031 98.710938 C 254.917969 98.75 254.804688 98.945312 254.644531 98.980469 C 254.464844 98.996094 254.289062 98.90625 254.109375 98.910156 C 253.929688 98.921875 253.761719 99.269531 253.582031 99.277344 C 253.402344 99.277344 253.226562 98.609375 253.046875 98.601562 C 252.867188 98.597656 252.671875 99.226562 252.492188 99.21875 C 252.308594 99.210938 252.164062 98.703125 251.984375 98.691406 C 251.804688 98.675781 251.519531 99.636719 251.339844 99.621094 C 251.148438 99.585938 251.039062 98.945312 250.847656 98.910156 C 250.65625 98.878906 250.371094 99.339844 250.179688 99.300781 C 249.988281 99.261719 249.820312 99.101562 249.628906 99.058594 C 249.4375 99.019531 249.242188 98.996094 249.050781 98.949219 C 248.859375 98.90625 248.640625 98.988281 248.449219 98.945312 C 248.257812 98.898438 248.121094 98.628906 247.9375 98.578125 C 247.746094 98.535156 247.558594 98.484375 247.367188 98.433594 C 247.183594 98.386719 247.09375 97.933594 246.90625 97.886719 C 246.722656 97.835938 246.417969 98.230469 246.234375 98.179688 C 246.046875 98.128906 245.890625 97.96875 245.699219 97.917969 C 245.515625 97.871094 245.277344 98.007812 245.085938 97.960938 C 244.894531 97.917969 244.765625 97.652344 244.574219 97.605469 C 244.382812 97.5625 244.175781 97.617188 243.984375 97.574219 C 243.789062 97.527344 243.613281 97.375 243.417969 97.335938 C 243.21875 97.292969 243.035156 97.167969 242.839844 97.128906 C 242.636719 97.089844 242.511719 96.652344 242.308594 96.617188 C 242.105469 96.585938 241.792969 97.203125 241.589844 97.167969 C 241.386719 97.136719 241.320312 96.261719 241.117188 96.230469 C 240.914062 96.203125 240.601562 96.949219 240.398438 96.921875 C 240.195312 96.894531 240.089844 96.144531 239.886719 96.125 C 239.683594 96.09375 239.351562 97.125 239.148438 97.101562 C 238.949219 97.078125 238.824219 96.324219 238.617188 96.304688 C 238.410156 96.285156 238.199219 96.273438 237.992188 96.257812 C 237.785156 96.246094 237.558594 96.667969 237.355469 96.664062 C 237.148438 96.65625 236.953125 96.511719 236.746094 96.511719 C 236.535156 96.511719 236.3125 95.9375 236.101562 95.941406 C 235.894531 95.953125 235.714844 96.472656 235.507812 96.488281 C 235.304688 96.503906 235.140625 96.820312 234.941406 96.84375 C 234.738281 96.863281 234.570312 97.046875 234.371094 97.066406 C 234.175781 97.09375 233.820312 96.066406 233.625 96.101562 C 233.425781 96.132812 233.320312 96.753906 233.125 96.792969 C 232.925781 96.832031 232.714844 96.804688 232.523438 96.847656 C 232.324219 96.894531 232.054688 96.679688 231.863281 96.730469 C 231.671875 96.785156 231.4375 96.773438 231.246094 96.835938 C 231.054688 96.898438 230.875 97.039062 230.683594 97.117188 C 230.511719 97.191406 230.46875 97.605469 230.296875 97.679688 C 230.121094 97.753906 229.886719 97.691406 229.710938 97.769531 C 229.539062 97.847656 229.527344 98.265625 229.351562 98.347656 C 229.175781 98.433594 228.828125 98.152344 228.660156 98.242188 C 228.492188 98.332031 228.671875 99 228.515625 99.101562 C 228.355469 99.199219 227.828125 98.710938 227.675781 98.816406 C 227.523438 98.917969 227.417969 99.089844 227.265625 99.203125 C 227.121094 99.3125 226.851562 99.269531 226.703125 99.382812 C 226.558594 99.496094 226.421875 99.632812 226.277344 99.75 C 226.136719 99.867188 226.441406 100.519531 226.300781 100.636719 C 226.160156 100.753906 225.332031 100.113281 225.199219 100.242188 C 225.0625 100.371094 225.257812 100.863281 225.128906 100.992188 C 225 101.125 225.148438 101.515625 225.023438 101.65625 C 224.898438 101.796875 224.265625 101.484375 224.140625 101.625 C 224.023438 101.765625 224.652344 102.527344 224.535156 102.671875 C 224.417969 102.820312 223.589844 102.40625 223.476562 102.554688 C 223.363281 102.699219 223.152344 102.785156 223.042969 102.9375 C 222.933594 103.089844 223.375 103.632812 223.269531 103.785156 C 223.164062 103.9375 222.503906 103.722656 222.398438 103.882812 C 222.296875 104.039062 222.976562 104.683594 222.882812 104.847656 C 222.785156 105.011719 222.191406 104.875 222.101562 105.039062 C 222.011719 105.203125 221.9375 105.382812 221.851562 105.550781 C 221.769531 105.71875 221.914062 106 221.835938 106.167969 C 221.757812 106.335938 221.65625 106.496094 221.582031 106.667969 C 221.507812 106.835938 221.167969 106.894531 221.097656 107.0625 C 221.027344 107.230469 220.800781 107.34375 220.734375 107.511719 C 220.667969 107.679688 221.097656 108.058594 221.03125 108.226562 C 220.964844 108.402344 220.449219 108.402344 220.386719 108.570312 C 220.316406 108.742188 220.863281 109.136719 220.800781 109.3125 C 220.738281 109.484375 220.300781 109.523438 220.246094 109.699219 C 220.1875 109.875 219.753906 109.929688 219.699219 110.109375 C 219.644531 110.285156 220.25 110.667969 220.195312 110.839844 C 220.144531 111.015625 220.335938 111.257812 220.285156 111.4375 C 220.234375 111.617188 219.800781 111.683594 219.753906 111.863281 C 219.710938 112.050781 219.328125 112.148438 219.285156 112.335938 C 219.238281 112.519531 218.972656 112.65625 218.933594 112.839844 C 218.894531 113.027344 219.203125 113.292969 219.164062 113.476562 C 219.125 113.664062 219.402344 113.910156 219.363281 114.09375 C 219.324219 114.28125 218.894531 114.386719 218.855469 114.574219 C 218.816406 114.757812 219.253906 115.039062 219.222656 115.226562 C 219.1875 115.410156 218.980469 115.5625 218.945312 115.75 C 218.914062 115.933594 219.164062 116.203125 219.125 116.390625 C 219.058594 116.597656 218.402344 116.664062 218.371094 116.871094 C 218.34375 117.085938 218.703125 117.3125 218.714844 117.519531 C 218.726562 117.726562 218.734375 117.921875 218.785156 118.132812 C 218.792969 118.339844 218.664062 118.566406 218.710938 118.765625 C 218.753906 118.96875 218.839844 119.148438 218.917969 119.339844 C 218.996094 119.527344 219.292969 119.585938 219.40625 119.761719 C 219.503906 119.941406 219.429688 120.210938 219.546875 120.367188 C 219.671875 120.53125 219.355469 121.144531 219.507812 121.285156 C 219.65625 121.421875 220.417969 120.839844 220.59375 120.953125 C 220.746094 121.09375 220.398438 121.960938 220.566406 122.066406 C 220.734375 122.179688 221.207031 121.820312 221.398438 121.898438 C 221.582031 121.976562 221.710938 122.3125 221.914062 122.359375 C 222.089844 122.398438 222.390625 121.683594 222.570312 121.707031 C 222.753906 121.730469 222.835938 122.765625 223.015625 122.769531 C 223.195312 122.773438 223.371094 121.667969 223.550781 121.660156 C 223.730469 121.652344 223.949219 122.246094 224.125 122.21875 C 224.304688 122.191406 224.496094 122.191406 224.667969 122.140625 C 224.84375 122.089844 225.167969 122.34375 225.332031 122.269531 C 225.496094 122.195312 225.625 121.949219 225.777344 121.847656 C 225.945312 121.742188 225.980469 121.410156 226.140625 121.285156 C 226.300781 121.160156 226.691406 121.261719 226.839844 121.121094 C 226.984375 120.980469 226.804688 120.507812 226.933594 120.359375 C 227.0625 120.199219 226.878906 119.859375 226.980469 119.6875 C 227.085938 119.515625 227.785156 119.65625 227.855469 119.464844 C 227.929688 119.277344 227.402344 118.917969 227.441406 118.714844 C 227.472656 118.53125 227.324219 118.304688 227.355469 118.121094 C 227.390625 117.933594 228.214844 117.894531 228.253906 117.710938 C 228.289062 117.523438 227.632812 117.199219 227.664062 117.011719 C 227.703125 116.828125 228.351562 116.761719 228.390625 116.574219 C 228.429688 116.390625 228.3125 116.167969 228.351562 115.984375 C 228.390625 115.796875 227.984375 115.511719 228.023438 115.328125 C 228.066406 115.140625 229.105469 115.1875 229.148438 115 C 229.195312 114.816406 228.441406 114.4375 228.492188 114.253906 C 228.535156 114.066406 228.367188 113.820312 228.417969 113.632812 C 228.46875 113.449219 228.425781 113.230469 228.476562 113.042969 C 228.527344 112.859375 229.570312 112.972656 229.628906 112.792969 C 229.683594 112.609375 229.289062 112.285156 229.347656 112.105469 C 229.40625 111.925781 229.296875 111.683594 229.359375 111.503906 C 229.417969 111.324219 229.824219 111.273438 229.890625 111.097656 C 229.976562 110.917969 230.398438 110.917969 230.480469 110.738281 C 230.570312 110.558594 230.21875 110.160156 230.3125 109.984375 C 230.410156 109.8125 230.746094 109.777344 230.847656 109.609375 C 230.949219 109.433594 230.4375 108.882812 230.542969 108.714844 C 230.652344 108.546875 230.847656 108.402344 230.960938 108.238281 C 231.101562 108.074219 231.257812 107.878906 231.402344 107.71875 C 231.550781 107.5625 231.847656 107.53125 232.003906 107.382812 C 232.164062 107.230469 232.464844 107.25 232.636719 107.109375 C 232.832031 106.972656 232.886719 106.617188 233.089844 106.496094 C 233.292969 106.375 233.609375 106.4375 233.816406 106.332031 C 234 106.265625 234.164062 106.125 234.355469 106.074219 C 234.546875 106.015625 234.71875 105.882812 234.910156 105.835938 C 235.101562 105.792969 235.339844 105.949219 235.535156 105.914062 C 235.726562 105.898438 235.914062 105.855469 236.101562 105.847656 C 236.292969 105.835938 236.492188 106.136719 236.683594 106.136719 C 236.875 106.136719 237.058594 106.066406 237.25 106.074219 C 237.441406 106.078125 237.660156 105.496094 237.851562 105.503906 C 238.042969 105.515625 238.261719 105.296875 238.453125 105.3125 C 238.644531 105.332031 238.835938 105.578125 239.027344 105.601562 C 239.21875 105.628906 239.410156 105.730469 239.59375 105.765625 C 239.785156 105.796875 239.839844 106.511719 240.027344 106.546875 C 240.210938 106.585938 240.4375 106.425781 240.625 106.46875 C 240.808594 106.507812 241.164062 105.804688 241.347656 105.847656 C 241.535156 105.894531 241.613281 106.433594 241.796875 106.472656 C 241.984375 106.515625 242.078125 106.945312 242.265625 106.988281 C 242.449219 107.035156 242.769531 106.539062 242.957031 106.589844 C 243.140625 106.636719 243.316406 106.730469 243.5 106.777344 C 243.6875 106.820312 243.851562 106.957031 244.035156 107 C 244.222656 107.046875 244.351562 107.320312 244.535156 107.371094 C 244.722656 107.417969 245.003906 107.0625 245.1875 107.109375 C 245.375 107.152344 245.574219 107.109375 245.761719 107.148438 C 245.945312 107.191406 246.105469 107.320312 246.289062 107.359375 C 246.476562 107.40625 246.605469 107.6875 246.785156 107.726562 C 246.96875 107.765625 247.207031 107.550781 247.390625 107.589844 C 247.578125 107.628906 247.789062 107.511719 247.976562 107.550781 C 248.160156 107.589844 248.183594 108.480469 248.371094 108.519531 C 248.554688 108.550781 248.890625 107.730469 249.078125 107.765625 C 249.261719 107.800781 249.34375 108.496094 249.527344 108.523438 C 249.714844 108.550781 249.972656 108.109375 250.15625 108.136719 C 250.34375 108.164062 250.5625 107.890625 250.753906 107.910156 C 250.9375 107.933594 251.089844 108.261719 251.277344 108.277344 C 251.460938 108.292969 251.664062 108.136719 251.847656 108.152344 C 252.039062 108.171875 252.171875 108.992188 252.359375 109.003906 C 252.546875 109.011719 252.765625 108.304688 252.953125 108.3125 C 253.136719 108.316406 253.328125 109.132812 253.519531 109.132812 C 253.703125 109.125 253.882812 108.613281 254.074219 108.609375 C 254.261719 108.597656 254.417969 108.210938 254.609375 108.199219 C 254.796875 108.179688 254.992188 108.363281 255.183594 108.339844 C 255.367188 108.320312 255.609375 108.75 255.796875 108.726562 C 255.980469 108.703125 256.160156 108.613281 256.347656 108.585938 C 256.53125 108.558594 256.683594 108.316406 256.871094 108.289062 C 257.050781 108.261719 257.128906 107.777344 257.300781 107.738281 C 257.480469 107.699219 257.601562 107.546875 257.773438 107.5 C 257.949219 107.449219 258.355469 108.191406 258.527344 108.136719 C 258.703125 108.082031 258.90625 108.085938 259.074219 108.023438 C 259.242188 107.960938 259.328125 107.660156 259.496094 107.589844 C 259.664062 107.523438 259.988281 107.828125 260.160156 107.753906 C 260.320312 107.679688 260.339844 107.253906 260.507812 107.179688 C 260.699219 107.097656 260.933594 107.085938 261.113281 106.988281 C 261.300781 106.894531 261.683594 107.109375 261.855469 107 C 262.03125 106.894531 261.652344 105.910156 261.820312 105.796875 C 261.992188 105.679688 262.753906 106.40625 262.925781 106.28125 C 263.09375 106.15625 263.035156 105.730469 263.199219 105.601562 C 263.363281 105.476562 263.667969 105.527344 263.828125 105.398438 C 263.980469 105.28125 263.617188 104.539062 263.761719 104.410156 C 263.90625 104.28125 264.085938 104.21875 264.222656 104.078125 C 264.359375 103.9375 264.761719 104.3125 264.890625 104.167969 C 265.082031 104.25 265.351562 103.742188 265.542969 103.824219 C 265.742188 103.910156 265.8125 104.273438 266.011719 104.351562 C 266.207031 104.425781 266.371094 104.640625 266.574219 104.695312 C 266.761719 104.753906 267.101562 104.203125 267.296875 104.246094 C 267.496094 104.292969 267.667969 104.292969 267.867188 104.324219 C 268.0625 104.359375 268.238281 104.375 268.4375 104.398438 C 268.640625 104.421875 268.808594 104.5625 269.007812 104.574219 C 269.210938 104.582031 269.371094 105.285156 269.574219 105.292969 C 269.753906 105.296875 269.957031 105.476562 270.132812 105.472656 C 270.3125 105.464844 270.445312 104.5 270.621094 104.488281 C 270.800781 104.476562 271.007812 104.902344 271.1875 104.886719 C 271.367188 104.871094 271.519531 104.671875 271.699219 104.652344 C 271.878906 104.628906 272.074219 104.769531 272.25 104.742188 C 272.429688 104.71875 272.625 104.863281 272.808594 104.84375 C 272.988281 104.8125 273.117188 104.472656 273.296875 104.4375 C 273.476562 104.410156 273.617188 104.210938 273.796875 104.179688 C 273.976562 104.144531 274.210938 104.402344 274.386719 104.363281 C 274.566406 104.324219 274.632812 103.820312 274.808594 103.773438 C 274.992188 103.730469 275.375 104.503906 275.566406 104.460938 C 275.753906 104.414062 275.832031 103.914062 276.015625 103.871094 C 276.203125 103.824219 276.386719 103.757812 276.574219 103.710938 C 276.757812 103.667969 276.871094 103.296875 277.058594 103.25 C 277.242188 103.207031 277.523438 103.542969 277.707031 103.503906 C 277.894531 103.464844 278.140625 103.707031 278.332031 103.671875 C 278.523438 103.632812 278.636719 103.121094 278.820312 103.09375 C 279 103.078125 279.226562 103.414062 279.414062 103.402344 C 279.59375 103.390625 279.777344 103.519531 279.964844 103.515625 C 280.144531 103.511719 280.3125 102.808594 280.496094 102.808594 C 280.675781 102.808594 280.863281 103.390625 281.046875 103.398438 C 281.226562 103.402344 281.390625 103.847656 281.570312 103.851562 C 281.75 103.859375 281.9375 103.660156 282.117188 103.679688 C 282.296875 103.691406 282.515625 103.308594 282.695312 103.324219 C 282.886719 103.359375 282.960938 104.019531 283.152344 104.0625 C 283.339844 104.101562 283.753906 103.117188 283.941406 103.15625 C 284.132812 103.199219 284.105469 104.140625 284.296875 104.191406 C 284.488281 104.242188 284.746094 104 284.933594 104.054688 C 285.117188 104.113281 285.214844 104.441406 285.398438 104.503906 C 285.585938 104.566406 285.910156 104.191406 286.097656 104.257812 C 286.28125 104.324219 286.421875 104.5 286.601562 104.566406 C 286.769531 104.644531 286.792969 105 286.957031 105.078125 C 287.121094 105.15625 287.710938 104.414062 287.871094 104.5 C 288.035156 104.582031 288.140625 104.796875 288.304688 104.886719 C 288.464844 104.976562 288.136719 105.898438 288.292969 105.996094 C 288.453125 106.089844 288.996094 105.542969 289.15625 105.640625 C 289.3125 105.742188 289.621094 105.617188 289.773438 105.71875 C 289.925781 105.820312 289.863281 106.253906 290.007812 106.359375 C 290.160156 106.484375 290.246094 106.6875 290.398438 106.816406 C 290.542969 106.945312 290.582031 107.191406 290.722656 107.320312 C 290.863281 107.457031 290.96875 107.621094 291.109375 107.753906 C 291.25 107.894531 291.789062 107.636719 291.925781 107.78125 C 292.0625 107.921875 291.691406 108.523438 291.820312 108.675781 C 291.949219 108.824219 292.773438 108.402344 292.898438 108.550781 C 293.003906 108.699219 292.683594 109.175781 292.785156 109.328125 C 292.886719 109.480469 293.09375 109.558594 293.191406 109.710938 C 293.285156 109.863281 293.15625 110.160156 293.246094 110.3125 C 293.34375 110.46875 293.949219 110.328125 294.035156 110.484375 C 294.125 110.644531 294.246094 110.796875 294.332031 110.953125 C 294.417969 111.109375 294.507812 111.285156 294.589844 111.449219 C 294.667969 111.609375 294.34375 111.976562 294.421875 112.140625 C 294.496094 112.324219 294.550781 112.515625 294.617188 112.695312 C 294.6875 112.882812 294.796875 113.050781 294.855469 113.242188 C 294.917969 113.425781 295.292969 113.527344 295.347656 113.714844 C 295.40625 113.902344 294.839844 114.265625 294.886719 114.457031 C 294.9375 114.644531 295.660156 114.675781 295.703125 114.867188 C 295.75 115.058594 295.710938 115.28125 295.75 115.472656 C 295.789062 115.664062 295.253906 115.960938 295.289062 116.152344 C 295.304688 116.339844 295.550781 116.496094 295.5625 116.679688 C 295.574219 116.867188 295.640625 117.050781 295.652344 117.238281 C 295.660156 117.421875 295.601562 117.613281 295.601562 117.800781 C 295.609375 117.984375 295.179688 118.171875 295.175781 118.355469 C 295.175781 118.542969 295.039062 118.710938 295.035156 118.902344 C 295.027344 119.085938 295.046875 119.261719 295.027344 119.445312 C 295.019531 119.632812 295.355469 119.835938 295.339844 120.019531 C 295.304688 120.222656 295.789062 120.527344 295.742188 120.730469 C 295.703125 120.929688 295.160156 121.03125 295.113281 121.234375 C 295.074219 121.410156 295.703125 121.683594 295.679688 121.863281 C 295.660156 122.042969 295.558594 122.15625 295.550781 122.335938 C 295.546875 122.515625 295.449219 122.652344 295.460938 122.832031 C 295.472656 123.011719 295.40625 123.164062 295.433594 123.335938 C 295.46875 123.511719 295.449219 123.667969 295.5 123.84375 C 295.550781 124.011719 295.472656 124.207031 295.546875 124.371094 C 295.621094 124.535156 295.511719 124.78125 295.609375 124.9375 C 295.703125 125.121094 295.714844 125.382812 295.832031 125.539062 C 295.957031 125.703125 296.265625 125.722656 296.410156 125.863281 C 296.558594 125.996094 296.894531 125.890625 297.070312 126 C 297.222656 126.140625 297.40625 126.1875 297.574219 126.292969 C 297.746094 126.40625 297.777344 126.6875 297.96875 126.765625 C 298.15625 126.84375 298.222656 127.363281 298.425781 127.40625 C 298.597656 127.445312 298.863281 127.0625 299.042969 127.085938 C 299.222656 127.109375 299.386719 127.25 299.566406 127.261719 C 299.746094 127.265625 299.914062 126.996094 300.09375 126.984375 C 300.273438 126.972656 300.425781 126.964844 300.605469 126.933594 C 300.785156 126.90625 301.152344 127.605469 301.320312 127.554688 C 301.492188 127.503906 301.402344 126.695312 301.566406 126.613281 C 301.730469 126.542969 301.765625 126.332031 301.914062 126.230469 C 302.085938 126.125 302.578125 126.484375 302.742188 126.363281 C 302.898438 126.238281 303.292969 126.324219 303.4375 126.183594 C 303.585938 126.042969 303.476562 125.621094 303.609375 125.460938 C 303.738281 125.304688 303.457031 124.878906 303.5625 124.703125 C 303.667969 124.527344 304.050781 124.523438 304.128906 124.339844 C 304.210938 124.152344 304.289062 123.960938 304.339844 123.765625 C 304.382812 123.585938 304.5625 123.433594 304.601562 123.253906 C 304.640625 123.074219 304.148438 122.785156 304.179688 122.601562 C 304.214844 122.421875 304.972656 122.371094 305 122.183594 C 305.035156 122.003906 304.929688 121.792969 304.957031 121.613281 C 304.984375 121.425781 305.253906 121.269531 305.277344 121.089844 C 305.300781 120.902344 305.203125 120.699219 305.222656 120.515625 C 305.238281 120.328125 305.125 120.128906 305.140625 119.941406 C 305.160156 119.757812 305.410156 119.582031 305.421875 119.398438 C 305.433594 119.210938 304.496094 118.984375 304.5 118.800781 C 304.507812 118.613281 305.570312 118.453125 305.570312 118.265625 C 305.570312 118.0625 305.140625 117.855469 305.140625 117.652344 C 305.136719 117.453125 304.878906 117.261719 304.867188 117.058594 C 304.855469 116.855469 304.449219 116.6875 304.433594 116.484375 C 304.417969 116.28125 304.742188 116.058594 304.726562 115.855469 C 304.703125 115.652344 304.519531 115.476562 304.488281 115.277344 C 304.46875 115.074219 305.097656 114.785156 305.0625 114.585938 C 305.035156 114.382812 304.46875 114.265625 304.433594 114.066406 C 304.398438 113.863281 304.628906 113.625 304.589844 113.425781 C 304.550781 113.230469 304.703125 112.988281 304.664062 112.792969 C 304.625 112.609375 304.5 112.441406 304.460938 112.269531 C 304.417969 112.089844 304.539062 111.863281 304.488281 111.683594 C 304.441406 111.503906 303.839844 111.488281 303.789062 111.3125 C 303.738281 111.136719 304.292969 110.765625 304.238281 110.59375 C 304.179688 110.417969 303.882812 110.316406 303.820312 110.144531 C 303.757812 109.96875 303.476562 109.878906 303.410156 109.703125 C 303.34375 109.53125 303.84375 109.136719 303.777344 108.96875 C 303.707031 108.800781 302.84375 108.953125 302.769531 108.78125 C 302.695312 108.613281 303.1875 108.210938 303.113281 108.039062 C 303.039062 107.871094 302.59375 107.867188 302.523438 107.699219 C 302.4375 107.511719 302.011719 107.496094 301.921875 107.308594 C 301.832031 107.125 302.335938 106.652344 302.242188 106.472656 C 302.144531 106.292969 301.914062 106.179688 301.8125 106.007812 C 301.714844 105.824219 302.015625 105.40625 301.914062 105.230469 C 301.808594 105.054688 301.625 104.914062 301.515625 104.742188 C 301.402344 104.574219 301 104.582031 300.886719 104.421875 C 300.769531 104.25 300.785156 103.988281 300.660156 103.820312 C 300.539062 103.65625 299.875 103.902344 299.75 103.742188 C 299.628906 103.578125 299.519531 103.414062 299.398438 103.257812 C 299.273438 103.097656 299.347656 102.785156 299.21875 102.628906 C 299.085938 102.46875 299.359375 101.980469 299.222656 101.824219 C 299.085938 101.671875 299.027344 101.441406 298.890625 101.289062 C 298.757812 101.136719 298.484375 101.097656 298.347656 100.953125 C 298.207031 100.804688 297.714844 101.003906 297.574219 100.855469 C 297.429688 100.714844 297.65625 100.183594 297.503906 100.042969 C 297.351562 99.90625 296.992188 100.003906 296.832031 99.871094 C 296.683594 99.742188 296.660156 99.457031 296.507812 99.328125 C 296.355469 99.203125 295.808594 99.5625 295.652344 99.441406 C 295.496094 99.316406 295.832031 98.558594 295.667969 98.433594 C 295.511719 98.316406 295.359375 98.164062 295.199219 98.050781 C 295.035156 97.933594 294.460938 98.398438 294.296875 98.289062 C 294.136719 98.175781 294.367188 97.464844 294.195312 97.359375 C 294.027344 97.253906 293.410156 97.859375 293.242188 97.757812 C 293.074219 97.65625 293.066406 97.28125 292.894531 97.1875 C 292.71875 97.085938 292.539062 97.011719 292.359375 96.921875 C 292.183594 96.824219 292.230469 96.296875 292.050781 96.207031 C 291.871094 96.117188 291.539062 96.324219 291.359375 96.242188 C 291.179688 96.15625 291.171875 95.679688 290.988281 95.59375 C 290.808594 95.511719 290.328125 96.09375 290.144531 96.015625 C 289.957031 95.9375 289.660156 96.171875 289.46875 96.101562 C 289.285156 96.027344 289.210938 95.671875 289.023438 95.605469 C 288.839844 95.539062 288.625 95.550781 288.441406 95.488281 C 288.25 95.421875 288.304688 94.605469 288.113281 94.542969 C 287.921875 94.480469 287.460938 95.324219 287.269531 95.273438 C 287.089844 95.222656 287.074219 94.617188 286.894531 94.570312 C 286.714844 94.527344 286.625 94.105469 286.445312 94.066406 C 286.265625 94.027344 286.058594 94.058594 285.878906 94.019531 C 285.695312 93.980469 285.371094 94.679688 285.191406 94.644531 C 285.011719 94.609375 284.832031 94.601562 284.652344 94.570312 C 284.472656 94.542969 284.320312 94.339844 284.132812 94.320312 C 283.949219 94.289062 283.730469 94.621094 283.550781 94.601562 C 283.363281 94.578125 283.25 93.988281 283.066406 93.96875 C 282.878906 93.953125 282.71875 93.726562 282.53125 93.710938 C 282.347656 93.695312 282.144531 93.9375 281.957031 93.925781 C 281.757812 93.914062 281.578125 93.4375 281.375 93.429688 C 281.171875 93.425781 280.957031 94.375 280.761719 94.375 C 280.558594 94.375 280.351562 93.582031 280.152344 93.585938 C 279.953125 93.59375 279.765625 93.898438 279.5625 93.910156 C 279.363281 93.917969 279.164062 93.957031 278.96875 93.976562 C 278.769531 93.992188 278.519531 93.53125 278.320312 93.554688 C 278.125 93.578125 277.90625 93.542969 277.707031 93.566406 C 277.511719 93.59375 277.421875 94.402344 277.21875 94.429688 C 277.023438 94.460938 276.84375 94.578125 276.644531 94.609375 C 276.449219 94.644531 276.21875 94.464844 276.023438 94.503906 C 275.832031 94.539062 275.578125 94.261719 275.386719 94.300781 C 275.195312 94.339844 274.941406 94.105469 274.75 94.148438 C 274.5625 94.195312 274.464844 94.640625 274.28125 94.683594 C 274.089844 94.730469 273.898438 94.746094 273.707031 94.796875 C 273.519531 94.839844 273.359375 95.015625 273.171875 95.0625 C 272.980469 95.105469 272.835938 95.3125 272.644531 95.359375 C 272.453125 95.402344 272.136719 94.890625 271.953125 94.929688 C 271.761719 94.976562 271.710938 95.652344 271.519531 95.691406 C 271.328125 95.730469 271.101562 95.640625 270.914062 95.671875 C 270.75 95.691406 270.59375 96.074219 270.429688 96.082031 C 270.265625 96.089844 270.082031 95.671875 269.917969 95.671875 C 269.753906 95.671875 269.621094 95.347656 269.460938 95.335938 C 269.320312 95.300781 269.179688 95.421875 269.046875 95.375 C 268.898438 95.296875 268.550781 95.5625 268.410156 95.472656 C 268.40625 95.464844 268.636719 95.179688 268.628906 95.171875 C 268.667969 94.941406 269.128906 94.695312 269.125 94.464844 C 269.117188 94.234375 269.140625 93.949219 269.089844 93.71875 C 269.078125 93.507812 269.011719 93.265625 268.96875 93.066406 C 268.921875 92.863281 268.839844 92.574219 268.757812 92.382812 C 268.679688 92.199219 267.972656 92.292969 267.859375 92.113281 C 267.765625 91.933594 267.605469 91.824219 267.484375 91.664062 C 267.359375 91.503906 267.214844 91.421875 267.0625 91.289062 C 266.914062 91.152344 266.824219 90.972656 266.65625 90.859375 C 266.503906 90.722656 266.582031 90.253906 266.414062 90.140625 C 266.246094 90.03125 266.070312 89.808594 265.882812 89.730469 C 265.695312 89.652344 265.363281 89.921875 265.160156 89.878906 C 264.988281 89.839844 264.8125 89.777344 264.640625 89.75 C 264.457031 89.726562 264.285156 89.660156 264.105469 89.652344 C 263.925781 89.648438 263.757812 89.972656 263.578125 89.984375 C 263.394531 89.996094 263.238281 89.980469 263.066406 90.007812 C 262.882812 90.035156 262.683594 89.878906 262.507812 89.929688 C 262.332031 89.980469 262.1875 90.078125 262.023438 90.152344 C 261.863281 90.226562 261.972656 90.710938 261.820312 90.804688 C 261.683594 90.894531 261.25 90.53125 261.121094 90.628906 C 260.984375 90.730469 260.75 90.722656 260.628906 90.832031 C 260.484375 90.933594 260.84375 91.574219 260.730469 91.699219 Z M 260.730469 91.699219 " fill-opacity="1" fill-rule="nonzero"/></g><g clip-path="url(#95f75e4429)"><g clip-path="url(#f8e34019a6)"><path fill="#ff5722" d="M 72.878906 151.5 L 153.5625 151.5 L 153.5625 232.183594 L 72.878906 232.183594 Z M 72.878906 151.5 " fill-opacity="1" fill-rule="nonzero"/></g></g><g clip-path="url(#3328f0f591)"><path fill="#8bc34a" d="M 114.257812 91.699219 C 114.417969 91.816406 114.59375 91.894531 114.734375 92.035156 C 114.878906 92.175781 115.027344 92.222656 115.148438 92.378906 C 115.273438 92.535156 116.160156 92.246094 116.257812 92.417969 C 116.335938 92.605469 115.863281 93.046875 115.949219 93.238281 C 116.027344 93.425781 116.054688 93.628906 116.140625 93.8125 C 116.191406 93.992188 116.152344 94.15625 116.179688 94.335938 C 116.207031 94.515625 116.347656 94.671875 116.351562 94.851562 C 116.359375 95.039062 116.722656 95.242188 116.707031 95.421875 C 116.691406 95.601562 116.140625 95.722656 116.105469 95.910156 C 116.105469 95.992188 116.761719 96.042969 116.769531 96.128906 C 116.804688 96.257812 115.988281 96.652344 116.027344 96.78125 C 116.140625 96.996094 117.003906 96.785156 117.140625 96.996094 C 117.265625 97.136719 116.847656 97.753906 116.984375 97.886719 C 117.117188 98.023438 117.546875 97.847656 117.683594 97.972656 C 117.882812 98.101562 117.785156 98.714844 117.988281 98.832031 C 118.191406 98.949219 118.507812 98.96875 118.714844 99.074219 C 118.871094 99.128906 119.238281 98.648438 119.398438 98.699219 C 119.5625 98.742188 119.742188 98.667969 119.90625 98.710938 C 120.070312 98.75 120.179688 98.945312 120.34375 98.980469 C 120.523438 98.996094 120.699219 98.90625 120.878906 98.910156 C 121.058594 98.921875 121.226562 99.269531 121.40625 99.277344 C 121.585938 99.277344 121.761719 98.609375 121.941406 98.601562 C 122.121094 98.597656 122.316406 99.226562 122.496094 99.21875 C 122.675781 99.210938 122.824219 98.703125 123.003906 98.691406 C 123.183594 98.675781 123.46875 99.636719 123.648438 99.621094 C 123.839844 99.585938 123.949219 98.945312 124.140625 98.910156 C 124.332031 98.878906 124.617188 99.339844 124.808594 99.300781 C 125 99.261719 125.167969 99.101562 125.359375 99.058594 C 125.550781 99.019531 125.746094 98.996094 125.9375 98.949219 C 126.128906 98.90625 126.347656 98.988281 126.539062 98.945312 C 126.730469 98.898438 126.867188 98.628906 127.050781 98.578125 C 127.242188 98.535156 127.425781 98.484375 127.617188 98.433594 C 127.804688 98.386719 127.894531 97.933594 128.078125 97.886719 C 128.265625 97.835938 128.570312 98.230469 128.753906 98.179688 C 128.941406 98.128906 129.097656 97.96875 129.289062 97.917969 C 129.472656 97.871094 129.710938 98.007812 129.902344 97.960938 C 130.09375 97.917969 130.222656 97.652344 130.414062 97.605469 C 130.605469 97.5625 130.8125 97.617188 131.003906 97.574219 C 131.199219 97.527344 131.375 97.375 131.570312 97.335938 C 131.769531 97.292969 131.953125 97.167969 132.148438 97.128906 C 132.351562 97.089844 132.476562 96.652344 132.679688 96.617188 C 132.878906 96.585938 133.195312 97.203125 133.398438 97.167969 C 133.601562 97.136719 133.667969 96.261719 133.871094 96.230469 C 134.074219 96.203125 134.386719 96.949219 134.589844 96.921875 C 134.792969 96.894531 134.898438 96.144531 135.101562 96.125 C 135.304688 96.09375 135.636719 97.125 135.835938 97.101562 C 136.039062 97.078125 136.164062 96.324219 136.371094 96.304688 C 136.578125 96.285156 136.789062 96.273438 136.996094 96.257812 C 137.203125 96.246094 137.429688 96.667969 137.632812 96.664062 C 137.839844 96.65625 138.035156 96.511719 138.242188 96.511719 C 138.453125 96.511719 138.675781 95.9375 138.882812 95.941406 C 139.09375 95.953125 139.273438 96.472656 139.480469 96.488281 C 139.683594 96.503906 139.847656 96.820312 140.046875 96.84375 C 140.25 96.863281 140.417969 97.046875 140.617188 97.066406 C 140.8125 97.09375 141.167969 96.066406 141.363281 96.101562 C 141.558594 96.132812 141.667969 96.753906 141.863281 96.792969 C 142.0625 96.832031 142.273438 96.804688 142.464844 96.847656 C 142.664062 96.894531 142.933594 96.679688 143.125 96.730469 C 143.3125 96.785156 143.550781 96.773438 143.742188 96.835938 C 143.933594 96.898438 144.113281 97.039062 144.304688 97.117188 C 144.476562 97.191406 144.515625 97.605469 144.691406 97.679688 C 144.867188 97.753906 145.101562 97.691406 145.277344 97.769531 C 145.449219 97.847656 145.460938 98.265625 145.636719 98.347656 C 145.808594 98.433594 146.160156 98.152344 146.328125 98.242188 C 146.496094 98.332031 146.316406 99 146.472656 99.101562 C 146.632812 99.199219 147.160156 98.710938 147.3125 98.816406 C 147.464844 98.917969 147.570312 99.089844 147.722656 99.203125 C 147.867188 99.3125 148.136719 99.269531 148.285156 99.382812 C 148.429688 99.496094 148.566406 99.632812 148.710938 99.75 C 148.851562 99.867188 148.546875 100.519531 148.6875 100.636719 C 148.828125 100.753906 149.65625 100.113281 149.789062 100.242188 C 149.925781 100.371094 149.730469 100.863281 149.859375 100.992188 C 149.988281 101.125 149.839844 101.515625 149.964844 101.65625 C 150.089844 101.796875 150.722656 101.484375 150.847656 101.625 C 150.964844 101.765625 150.335938 102.527344 150.453125 102.671875 C 150.570312 102.820312 151.398438 102.40625 151.511719 102.554688 C 151.625 102.699219 151.835938 102.785156 151.945312 102.9375 C 152.054688 103.089844 151.613281 103.632812 151.71875 103.785156 C 151.824219 103.9375 152.484375 103.722656 152.589844 103.882812 C 152.691406 104.039062 152.011719 104.683594 152.105469 104.847656 C 152.203125 105.011719 152.796875 104.875 152.886719 105.039062 C 152.976562 105.203125 153.050781 105.382812 153.136719 105.550781 C 153.21875 105.71875 153.074219 106 153.152344 106.167969 C 153.230469 106.335938 153.332031 106.496094 153.40625 106.667969 C 153.476562 106.835938 153.820312 106.894531 153.886719 107.0625 C 153.960938 107.230469 154.1875 107.34375 154.253906 107.511719 C 154.320312 107.679688 153.886719 108.058594 153.957031 108.226562 C 154.023438 108.402344 154.539062 108.402344 154.601562 108.570312 C 154.671875 108.742188 154.125 109.136719 154.1875 109.3125 C 154.25 109.484375 154.6875 109.523438 154.742188 109.699219 C 154.800781 109.875 155.230469 109.929688 155.289062 110.109375 C 155.34375 110.285156 154.738281 110.667969 154.792969 110.839844 C 154.84375 111.015625 154.652344 111.257812 154.703125 111.4375 C 154.753906 111.617188 155.1875 111.683594 155.230469 111.863281 C 155.277344 112.050781 155.660156 112.148438 155.703125 112.335938 C 155.75 112.519531 156.011719 112.65625 156.054688 112.839844 C 156.09375 113.027344 155.78125 113.292969 155.824219 113.476562 C 155.863281 113.664062 155.585938 113.910156 155.625 114.09375 C 155.664062 114.28125 156.09375 114.386719 156.132812 114.574219 C 156.171875 114.757812 155.734375 115.039062 155.765625 115.226562 C 155.800781 115.410156 156.007812 115.5625 156.042969 115.75 C 156.074219 115.933594 155.824219 116.203125 155.863281 116.390625 C 155.929688 116.597656 156.585938 116.664062 156.613281 116.871094 C 156.644531 117.085938 156.285156 117.3125 156.273438 117.519531 C 156.261719 117.726562 156.253906 117.921875 156.203125 118.132812 C 156.195312 118.339844 156.324219 118.566406 156.277344 118.765625 C 156.234375 118.96875 156.148438 119.148438 156.070312 119.339844 C 155.992188 119.527344 155.691406 119.585938 155.582031 119.761719 C 155.484375 119.941406 155.558594 120.210938 155.441406 120.367188 C 155.316406 120.53125 155.632812 121.144531 155.480469 121.285156 C 155.332031 121.421875 154.570312 120.839844 154.394531 120.953125 C 154.242188 121.09375 154.589844 121.960938 154.421875 122.066406 C 154.253906 122.179688 153.78125 121.820312 153.589844 121.898438 C 153.40625 121.976562 153.277344 122.3125 153.074219 122.359375 C 152.898438 122.398438 152.59375 121.683594 152.414062 121.707031 C 152.234375 121.730469 152.152344 122.765625 151.972656 122.769531 C 151.792969 122.773438 151.617188 121.667969 151.4375 121.660156 C 151.257812 121.652344 151.039062 122.246094 150.863281 122.21875 C 150.683594 122.191406 150.492188 122.191406 150.320312 122.140625 C 150.144531 122.089844 149.820312 122.34375 149.65625 122.269531 C 149.492188 122.195312 149.363281 121.949219 149.210938 121.847656 C 149.042969 121.742188 149.007812 121.410156 148.847656 121.285156 C 148.6875 121.160156 148.296875 121.261719 148.148438 121.121094 C 148.003906 120.980469 148.183594 120.507812 148.054688 120.359375 C 147.925781 120.199219 148.109375 119.859375 148.007812 119.6875 C 147.902344 119.515625 147.203125 119.65625 147.132812 119.464844 C 147.058594 119.277344 147.585938 118.917969 147.546875 118.714844 C 147.515625 118.53125 147.664062 118.304688 147.632812 118.121094 C 147.597656 117.933594 146.773438 117.894531 146.730469 117.710938 C 146.699219 117.523438 147.355469 117.199219 147.324219 117.011719 C 147.28125 116.828125 146.636719 116.761719 146.597656 116.574219 C 146.558594 116.390625 146.675781 116.167969 146.636719 115.984375 C 146.597656 115.796875 147.003906 115.511719 146.960938 115.328125 C 146.921875 115.140625 145.882812 115.1875 145.839844 115 C 145.792969 114.816406 146.546875 114.4375 146.496094 114.253906 C 146.453125 114.066406 146.621094 113.820312 146.570312 113.632812 C 146.519531 113.449219 146.5625 113.230469 146.511719 113.042969 C 146.460938 112.859375 145.417969 112.972656 145.359375 112.792969 C 145.304688 112.609375 145.699219 112.285156 145.640625 112.105469 C 145.578125 111.925781 145.691406 111.683594 145.628906 111.503906 C 145.570312 111.324219 145.164062 111.273438 145.097656 111.097656 C 145.011719 110.917969 144.589844 110.917969 144.507812 110.738281 C 144.417969 110.558594 144.769531 110.160156 144.675781 109.984375 C 144.578125 109.8125 144.242188 109.777344 144.140625 109.609375 C 144.039062 109.433594 144.550781 108.882812 144.445312 108.714844 C 144.335938 108.546875 144.140625 108.402344 144.027344 108.238281 C 143.886719 108.074219 143.730469 107.878906 143.585938 107.71875 C 143.4375 107.5625 143.140625 107.53125 142.984375 107.382812 C 142.824219 107.230469 142.523438 107.25 142.351562 107.109375 C 142.15625 106.972656 142.101562 106.617188 141.898438 106.496094 C 141.695312 106.375 141.378906 106.4375 141.171875 106.332031 C 140.988281 106.265625 140.824219 106.125 140.632812 106.074219 C 140.441406 106.015625 140.265625 105.882812 140.078125 105.835938 C 139.886719 105.792969 139.648438 105.949219 139.453125 105.914062 C 139.261719 105.898438 139.074219 105.855469 138.882812 105.847656 C 138.695312 105.835938 138.496094 106.136719 138.304688 106.136719 C 138.113281 106.136719 137.929688 106.066406 137.738281 106.074219 C 137.546875 106.078125 137.328125 105.496094 137.136719 105.503906 C 136.945312 105.515625 136.726562 105.296875 136.535156 105.3125 C 136.34375 105.332031 136.152344 105.578125 135.960938 105.601562 C 135.769531 105.628906 135.578125 105.730469 135.394531 105.765625 C 135.203125 105.796875 135.144531 106.511719 134.960938 106.546875 C 134.773438 106.585938 134.550781 106.425781 134.363281 106.46875 C 134.179688 106.507812 133.824219 105.804688 133.640625 105.847656 C 133.453125 105.894531 133.375 106.433594 133.191406 106.472656 C 133.003906 106.515625 132.910156 106.945312 132.722656 106.988281 C 132.539062 107.035156 132.21875 106.539062 132.03125 106.589844 C 131.847656 106.636719 131.671875 106.730469 131.488281 106.777344 C 131.300781 106.820312 131.136719 106.957031 130.953125 107 C 130.765625 107.046875 130.636719 107.320312 130.453125 107.371094 C 130.265625 107.417969 129.984375 107.0625 129.800781 107.109375 C 129.613281 107.152344 129.414062 107.109375 129.226562 107.148438 C 129.042969 107.191406 128.882812 107.320312 128.699219 107.359375 C 128.511719 107.40625 128.382812 107.6875 128.203125 107.726562 C 128.019531 107.765625 127.78125 107.550781 127.597656 107.589844 C 127.410156 107.628906 127.195312 107.511719 127.011719 107.550781 C 126.828125 107.589844 126.804688 108.480469 126.617188 108.519531 C 126.433594 108.550781 126.09375 107.730469 125.910156 107.765625 C 125.722656 107.800781 125.644531 108.496094 125.460938 108.523438 C 125.273438 108.550781 125.015625 108.109375 124.832031 108.136719 C 124.644531 108.164062 124.425781 107.890625 124.234375 107.910156 C 124.050781 107.933594 123.898438 108.261719 123.710938 108.277344 C 123.527344 108.292969 123.324219 108.136719 123.136719 108.152344 C 122.949219 108.171875 122.816406 108.992188 122.625 109.003906 C 122.441406 109.011719 122.222656 108.304688 122.035156 108.3125 C 121.851562 108.316406 121.660156 109.132812 121.46875 109.132812 C 121.285156 109.125 121.101562 108.613281 120.914062 108.609375 C 120.726562 108.597656 120.570312 108.210938 120.378906 108.199219 C 120.191406 108.179688 119.996094 108.363281 119.804688 108.339844 C 119.621094 108.320312 119.378906 108.75 119.191406 108.726562 C 119.007812 108.703125 118.828125 108.613281 118.640625 108.585938 C 118.457031 108.558594 118.304688 108.316406 118.117188 108.289062 C 117.9375 108.261719 117.859375 107.777344 117.683594 107.738281 C 117.503906 107.699219 117.386719 107.546875 117.214844 107.5 C 117.039062 107.449219 116.632812 108.191406 116.460938 108.136719 C 116.285156 108.082031 116.082031 108.085938 115.914062 108.023438 C 115.746094 107.960938 115.660156 107.660156 115.492188 107.589844 C 115.324219 107.523438 115 107.828125 114.828125 107.753906 C 114.667969 107.679688 114.648438 107.253906 114.480469 107.179688 C 114.289062 107.097656 114.054688 107.085938 113.875 106.988281 C 113.6875 106.894531 113.304688 107.109375 113.132812 107 C 112.957031 106.894531 113.335938 105.910156 113.164062 105.796875 C 112.996094 105.679688 112.234375 106.40625 112.0625 106.28125 C 111.894531 106.15625 111.953125 105.730469 111.789062 105.601562 C 111.625 105.476562 111.320312 105.527344 111.160156 105.398438 C 111.007812 105.28125 111.371094 104.539062 111.226562 104.410156 C 111.082031 104.28125 110.898438 104.21875 110.765625 104.078125 C 110.628906 103.9375 110.226562 104.3125 110.097656 104.167969 C 109.90625 104.25 109.636719 103.742188 109.445312 103.824219 C 109.246094 103.910156 109.175781 104.273438 108.976562 104.351562 C 108.78125 104.425781 108.617188 104.640625 108.414062 104.695312 C 108.222656 104.753906 107.886719 104.203125 107.691406 104.246094 C 107.492188 104.292969 107.320312 104.292969 107.121094 104.324219 C 106.925781 104.359375 106.75 104.375 106.550781 104.398438 C 106.347656 104.421875 106.179688 104.5625 105.980469 104.574219 C 105.777344 104.582031 105.617188 105.285156 105.414062 105.292969 C 105.234375 105.296875 105.03125 105.476562 104.855469 105.472656 C 104.675781 105.464844 104.542969 104.5 104.367188 104.488281 C 104.1875 104.476562 103.980469 104.902344 103.800781 104.886719 C 103.621094 104.871094 103.46875 104.671875 103.289062 104.652344 C 103.109375 104.628906 102.910156 104.769531 102.738281 104.742188 C 102.558594 104.71875 102.359375 104.863281 102.179688 104.84375 C 102 104.8125 101.871094 104.472656 101.691406 104.4375 C 101.511719 104.410156 101.371094 104.210938 101.191406 104.179688 C 101.011719 104.144531 100.777344 104.402344 100.601562 104.363281 C 100.421875 104.324219 100.355469 103.820312 100.179688 103.773438 C 99.996094 103.730469 99.613281 104.503906 99.421875 104.460938 C 99.234375 104.414062 99.15625 103.914062 98.972656 103.871094 C 98.785156 103.824219 98.601562 103.757812 98.414062 103.710938 C 98.230469 103.667969 98.117188 103.296875 97.929688 103.25 C 97.746094 103.207031 97.464844 103.542969 97.277344 103.503906 C 97.09375 103.464844 96.847656 103.707031 96.65625 103.671875 C 96.464844 103.632812 96.351562 103.121094 96.164062 103.09375 C 95.984375 103.078125 95.761719 103.414062 95.574219 103.402344 C 95.394531 103.390625 95.210938 103.519531 95.023438 103.515625 C 94.84375 103.511719 94.675781 102.808594 94.492188 102.808594 C 94.3125 102.808594 94.125 103.390625 93.941406 103.398438 C 93.761719 103.402344 93.597656 103.847656 93.417969 103.851562 C 93.238281 103.859375 93.050781 103.660156 92.871094 103.679688 C 92.691406 103.691406 92.472656 103.308594 92.292969 103.324219 C 92.101562 103.359375 92.027344 104.019531 91.835938 104.0625 C 91.644531 104.101562 91.234375 103.117188 91.042969 103.15625 C 90.855469 103.199219 90.882812 104.140625 90.691406 104.191406 C 90.5 104.242188 90.242188 104 90.054688 104.054688 C 89.871094 104.113281 89.773438 104.441406 89.589844 104.503906 C 89.402344 104.566406 89.078125 104.191406 88.890625 104.257812 C 88.707031 104.324219 88.566406 104.5 88.386719 104.566406 C 88.21875 104.644531 88.195312 105 88.03125 105.078125 C 87.867188 105.15625 87.277344 104.414062 87.113281 104.5 C 86.953125 104.582031 86.84375 104.796875 86.683594 104.886719 C 86.523438 104.976562 86.851562 105.898438 86.695312 105.996094 C 86.535156 106.089844 85.992188 105.542969 85.832031 105.640625 C 85.675781 105.742188 85.367188 105.617188 85.214844 105.71875 C 85.0625 105.820312 85.125 106.253906 84.980469 106.359375 C 84.828125 106.484375 84.742188 106.6875 84.589844 106.816406 C 84.445312 106.945312 84.40625 107.191406 84.265625 107.320312 C 84.125 107.457031 84.019531 107.621094 83.878906 107.753906 C 83.738281 107.894531 83.195312 107.636719 83.0625 107.78125 C 82.925781 107.921875 83.296875 108.523438 83.167969 108.675781 C 83.039062 108.824219 82.214844 108.402344 82.089844 108.550781 C 81.984375 108.699219 82.304688 109.175781 82.203125 109.328125 C 82.101562 109.480469 81.894531 109.558594 81.796875 109.710938 C 81.703125 109.863281 81.832031 110.160156 81.742188 110.3125 C 81.644531 110.46875 81.039062 110.328125 80.953125 110.484375 C 80.863281 110.644531 80.742188 110.796875 80.65625 110.953125 C 80.570312 111.109375 80.480469 111.285156 80.398438 111.449219 C 80.320312 111.609375 80.644531 111.976562 80.566406 112.140625 C 80.492188 112.324219 80.4375 112.515625 80.371094 112.695312 C 80.300781 112.882812 80.1875 113.050781 80.132812 113.242188 C 80.070312 113.425781 79.695312 113.527344 79.636719 113.714844 C 79.582031 113.902344 80.148438 114.265625 80.097656 114.457031 C 80.050781 114.644531 79.328125 114.675781 79.285156 114.867188 C 79.238281 115.058594 79.277344 115.28125 79.238281 115.472656 C 79.199219 115.664062 79.734375 115.960938 79.699219 116.152344 C 79.683594 116.339844 79.4375 116.496094 79.425781 116.679688 C 79.414062 116.867188 79.347656 117.050781 79.335938 117.238281 C 79.328125 117.421875 79.386719 117.613281 79.386719 117.800781 C 79.378906 117.984375 79.808594 118.171875 79.8125 118.355469 C 79.8125 118.542969 79.949219 118.710938 79.953125 118.902344 C 79.957031 119.085938 79.941406 119.261719 79.957031 119.445312 C 79.96875 119.632812 79.632812 119.835938 79.648438 120.019531 C 79.683594 120.222656 79.199219 120.527344 79.246094 120.730469 C 79.285156 120.929688 79.828125 121.03125 79.875 121.234375 C 79.914062 121.410156 79.285156 121.683594 79.308594 121.863281 C 79.328125 122.042969 79.429688 122.15625 79.4375 122.335938 C 79.441406 122.515625 79.539062 122.652344 79.527344 122.832031 C 79.515625 123.011719 79.582031 123.164062 79.554688 123.335938 C 79.519531 123.511719 79.539062 123.667969 79.488281 123.84375 C 79.4375 124.011719 79.515625 124.207031 79.441406 124.371094 C 79.367188 124.535156 79.476562 124.78125 79.378906 124.9375 C 79.285156 125.121094 79.273438 125.382812 79.15625 125.539062 C 79.03125 125.703125 78.722656 125.722656 78.574219 125.863281 C 78.429688 125.996094 78.09375 125.890625 77.917969 126 C 77.765625 126.140625 77.582031 126.1875 77.414062 126.292969 C 77.242188 126.40625 77.210938 126.6875 77.019531 126.765625 C 76.832031 126.84375 76.765625 127.363281 76.5625 127.40625 C 76.390625 127.445312 76.125 127.0625 75.945312 127.085938 C 75.765625 127.109375 75.601562 127.25 75.421875 127.261719 C 75.242188 127.265625 75.074219 126.996094 74.894531 126.984375 C 74.714844 126.972656 74.5625 126.964844 74.382812 126.933594 C 74.203125 126.90625 73.835938 127.605469 73.667969 127.554688 C 73.492188 127.503906 73.585938 126.695312 73.421875 126.613281 C 73.257812 126.542969 73.222656 126.332031 73.074219 126.230469 C 72.902344 126.125 72.410156 126.484375 72.246094 126.363281 C 72.089844 126.238281 71.695312 126.324219 71.550781 126.183594 C 71.402344 126.042969 71.507812 125.621094 71.378906 125.460938 C 71.25 125.304688 71.53125 124.878906 71.425781 124.703125 C 71.320312 124.527344 70.9375 124.523438 70.859375 124.339844 C 70.777344 124.152344 70.699219 123.960938 70.648438 123.765625 C 70.605469 123.585938 70.425781 123.433594 70.386719 123.253906 C 70.347656 123.074219 70.839844 122.785156 70.808594 122.601562 C 70.773438 122.421875 70.015625 122.371094 69.984375 122.183594 C 69.953125 122.003906 70.058594 121.792969 70.03125 121.613281 C 70.003906 121.425781 69.734375 121.269531 69.710938 121.089844 C 69.6875 120.902344 69.785156 120.699219 69.765625 120.515625 C 69.75 120.328125 69.863281 120.128906 69.84375 119.941406 C 69.828125 119.757812 69.574219 119.582031 69.566406 119.398438 C 69.554688 119.210938 70.492188 118.984375 70.488281 118.800781 C 70.480469 118.613281 69.417969 118.453125 69.417969 118.265625 C 69.417969 118.0625 69.84375 117.855469 69.84375 117.652344 C 69.851562 117.453125 70.109375 117.261719 70.121094 117.058594 C 70.132812 116.855469 70.539062 116.6875 70.554688 116.484375 C 70.570312 116.28125 70.246094 116.058594 70.261719 115.855469 C 70.285156 115.652344 70.46875 115.476562 70.496094 115.277344 C 70.519531 115.074219 69.890625 114.785156 69.925781 114.585938 C 69.953125 114.382812 70.519531 114.265625 70.554688 114.066406 C 70.585938 113.863281 70.355469 113.625 70.398438 113.425781 C 70.4375 113.230469 70.285156 112.988281 70.324219 112.792969 C 70.363281 112.609375 70.488281 112.441406 70.527344 112.269531 C 70.570312 112.089844 70.445312 111.863281 70.496094 111.683594 C 70.546875 111.503906 71.148438 111.488281 71.199219 111.3125 C 71.25 111.136719 70.695312 110.765625 70.75 110.59375 C 70.808594 110.417969 71.105469 110.316406 71.167969 110.144531 C 71.230469 109.96875 71.507812 109.878906 71.578125 109.703125 C 71.644531 109.53125 71.144531 109.136719 71.210938 108.96875 C 71.277344 108.800781 72.144531 108.953125 72.21875 108.78125 C 72.292969 108.613281 71.800781 108.210938 71.875 108.039062 C 71.949219 107.871094 72.390625 107.867188 72.464844 107.699219 C 72.550781 107.511719 72.976562 107.496094 73.066406 107.308594 C 73.15625 107.125 72.652344 106.652344 72.746094 106.472656 C 72.84375 106.292969 73.074219 106.179688 73.171875 106.007812 C 73.273438 105.824219 72.972656 105.40625 73.074219 105.230469 C 73.179688 105.054688 73.363281 104.914062 73.472656 104.742188 C 73.585938 104.574219 73.988281 104.582031 74.101562 104.421875 C 74.21875 104.25 74.203125 103.988281 74.324219 103.820312 C 74.449219 103.65625 75.113281 103.902344 75.238281 103.742188 C 75.359375 103.578125 75.46875 103.414062 75.589844 103.257812 C 75.714844 103.097656 75.640625 102.785156 75.769531 102.628906 C 75.898438 102.46875 75.628906 101.980469 75.765625 101.824219 C 75.898438 101.671875 75.960938 101.441406 76.097656 101.289062 C 76.230469 101.136719 76.5 101.097656 76.640625 100.953125 C 76.78125 100.804688 77.273438 101.003906 77.414062 100.855469 C 77.558594 100.714844 77.332031 100.183594 77.484375 100.042969 C 77.636719 99.90625 77.996094 100.003906 78.15625 99.871094 C 78.304688 99.742188 78.328125 99.457031 78.480469 99.328125 C 78.632812 99.203125 79.175781 99.5625 79.335938 99.441406 C 79.492188 99.316406 79.15625 98.558594 79.316406 98.433594 C 79.476562 98.316406 79.628906 98.164062 79.789062 98.050781 C 79.953125 97.933594 80.527344 98.398438 80.691406 98.289062 C 80.851562 98.175781 80.621094 97.464844 80.789062 97.359375 C 80.960938 97.253906 81.578125 97.859375 81.746094 97.757812 C 81.914062 97.65625 81.921875 97.28125 82.09375 97.1875 C 82.269531 97.085938 82.449219 97.011719 82.628906 96.921875 C 82.804688 96.824219 82.757812 96.296875 82.9375 96.207031 C 83.117188 96.117188 83.449219 96.324219 83.628906 96.242188 C 83.808594 96.15625 83.816406 95.679688 84 95.59375 C 84.179688 95.511719 84.660156 96.09375 84.84375 96.015625 C 85.03125 95.9375 85.328125 96.171875 85.519531 96.101562 C 85.703125 96.027344 85.777344 95.671875 85.960938 95.605469 C 86.148438 95.539062 86.363281 95.550781 86.546875 95.488281 C 86.738281 95.421875 86.683594 94.605469 86.875 94.542969 C 87.066406 94.480469 87.527344 95.324219 87.714844 95.273438 C 87.898438 95.222656 87.914062 94.617188 88.09375 94.570312 C 88.273438 94.527344 88.363281 94.105469 88.542969 94.066406 C 88.722656 94.027344 88.929688 94.058594 89.109375 94.019531 C 89.289062 93.980469 89.617188 94.679688 89.796875 94.644531 C 89.976562 94.609375 90.15625 94.601562 90.335938 94.570312 C 90.515625 94.542969 90.667969 94.339844 90.855469 94.320312 C 91.039062 94.289062 91.257812 94.621094 91.4375 94.601562 C 91.625 94.578125 91.734375 93.988281 91.921875 93.96875 C 92.105469 93.953125 92.269531 93.726562 92.457031 93.710938 C 92.640625 93.695312 92.84375 93.9375 93.027344 93.925781 C 93.230469 93.914062 93.410156 93.4375 93.613281 93.429688 C 93.816406 93.425781 94.03125 94.375 94.226562 94.375 C 94.429688 94.375 94.636719 93.582031 94.832031 93.585938 C 95.035156 93.59375 95.222656 93.898438 95.425781 93.910156 C 95.625 93.917969 95.824219 93.957031 96.019531 93.976562 C 96.214844 93.992188 96.46875 93.53125 96.667969 93.554688 C 96.863281 93.578125 97.082031 93.542969 97.277344 93.566406 C 97.476562 93.59375 97.566406 94.402344 97.769531 94.429688 C 97.964844 94.460938 98.144531 94.578125 98.339844 94.609375 C 98.539062 94.644531 98.769531 94.464844 98.964844 94.503906 C 99.15625 94.539062 99.410156 94.261719 99.601562 94.300781 C 99.792969 94.339844 100.042969 94.105469 100.234375 94.148438 C 100.425781 94.195312 100.523438 94.640625 100.707031 94.683594 C 100.898438 94.730469 101.089844 94.746094 101.28125 94.796875 C 101.46875 94.839844 101.628906 95.015625 101.816406 95.0625 C 102.007812 95.105469 102.152344 95.3125 102.34375 95.359375 C 102.535156 95.402344 102.851562 94.890625 103.035156 94.929688 C 103.226562 94.976562 103.277344 95.652344 103.46875 95.691406 C 103.660156 95.730469 103.882812 95.640625 104.074219 95.671875 C 104.238281 95.691406 104.394531 96.074219 104.558594 96.082031 C 104.722656 96.089844 104.90625 95.671875 105.070312 95.671875 C 105.234375 95.671875 105.367188 95.347656 105.527344 95.335938 C 105.667969 95.300781 105.808594 95.421875 105.941406 95.375 C 106.089844 95.296875 106.4375 95.5625 106.578125 95.472656 C 106.582031 95.464844 106.351562 95.179688 106.359375 95.171875 C 106.320312 94.941406 105.859375 94.695312 105.863281 94.464844 C 105.867188 94.234375 105.847656 93.949219 105.898438 93.71875 C 105.910156 93.507812 105.976562 93.265625 106.019531 93.066406 C 106.066406 92.863281 106.148438 92.574219 106.230469 92.382812 C 106.308594 92.199219 107.015625 92.292969 107.128906 92.113281 C 107.222656 91.933594 107.382812 91.824219 107.503906 91.664062 C 107.628906 91.503906 107.773438 91.421875 107.925781 91.289062 C 108.074219 91.152344 108.164062 90.972656 108.332031 90.859375 C 108.484375 90.722656 108.402344 90.253906 108.574219 90.140625 C 108.742188 90.03125 108.914062 89.808594 109.105469 89.730469 C 109.292969 89.652344 109.625 89.921875 109.828125 89.878906 C 110 89.839844 110.175781 89.777344 110.347656 89.75 C 110.527344 89.726562 110.703125 89.660156 110.882812 89.652344 C 111.0625 89.648438 111.230469 89.972656 111.410156 89.984375 C 111.589844 89.996094 111.75 89.980469 111.921875 90.007812 C 112.101562 90.035156 112.304688 89.878906 112.480469 89.929688 C 112.652344 89.980469 112.800781 90.078125 112.964844 90.152344 C 113.125 90.226562 113.015625 90.710938 113.164062 90.804688 C 113.304688 90.894531 113.738281 90.53125 113.867188 90.628906 C 114.003906 90.730469 114.238281 90.722656 114.359375 90.832031 C 114.503906 90.933594 114.144531 91.574219 114.257812 91.699219 Z M 114.257812 91.699219 " fill-opacity="1" fill-rule="nonzero"/></g><g clip-path="url(#1f360b5282)"><path fill="#8bc34a" d="M 113.226562 244.332031 C 84.269531 244.332031 60.710938 220.773438 60.710938 191.816406 C 60.710938 162.859375 84.269531 139.304688 113.226562 139.304688 C 142.183594 139.304688 165.742188 162.859375 165.742188 191.816406 C 165.742188 220.773438 142.183594 244.332031 113.226562 244.332031 Z M 113.226562 136.734375 C 82.855469 136.734375 58.144531 161.445312 58.144531 191.816406 C 58.144531 222.1875 82.855469 246.898438 113.226562 246.898438 C 143.597656 246.898438 168.308594 222.1875 168.308594 191.816406 C 168.308594 161.445312 143.597656 136.734375 113.226562 136.734375 " fill-opacity="1" fill-rule="nonzero"/></g><g clip-path="url(#035fa5d644)"><path fill="#8bc34a" d="M 113.226562 138.570312 C 83.867188 138.570312 59.980469 162.457031 59.980469 191.816406 C 59.980469 221.175781 83.867188 245.0625 113.226562 245.0625 C 142.585938 245.0625 166.472656 221.175781 166.472656 191.816406 C 166.472656 162.457031 142.585938 138.570312 113.226562 138.570312 Z M 113.226562 246.167969 C 83.257812 246.167969 58.875 221.785156 58.875 191.816406 C 58.875 161.847656 83.257812 137.464844 113.226562 137.464844 C 143.195312 137.464844 167.578125 161.847656 167.578125 191.816406 C 167.578125 221.785156 143.195312 246.167969 113.226562 246.167969 " fill-opacity="1" fill-rule="nonzero"/></g><path stroke-linecap="butt" transform="matrix(0.749708, 0.0209149, -0.0209149, 0.749708, 165.793441, 182.767942)" fill="none" stroke-linejoin="miter" d="M 0.00167798 5.499004 L 58.211871 5.500721 " stroke="#8bc34a" stroke-width="11" stroke-opacity="1" stroke-miterlimit="4"/><g fill="#ffc107" fill-opacity="1"><g transform="translate(99.510255, 207.141212)"><g><path d="M 4.109375 -17.484375 L 21.921875 -27.859375 L 23.9375 -24.34375 L 9 -15.84375 L 23.9375 -7.359375 L 21.921875 -3.84375 L 4.109375 -14.203125 Z M 4.109375 -17.484375 "/></g></g></g><g clip-path="url(#6d40745c4c)"><g clip-path="url(#1874ddab54)"><path fill="#ff5722" d="M 221.4375 151.5 L 302.121094 151.5 L 302.121094 232.183594 L 221.4375 232.183594 Z M 221.4375 151.5 " fill-opacity="1" fill-rule="nonzero"/></g></g><g fill="#ffc107" fill-opacity="1"><g transform="translate(248.43661, 208.358761)"><g><path d="M 22.9375 -17.484375 L 22.9375 -14.203125 L 5.125 -3.84375 L 3.109375 -7.359375 L 18.046875 -15.84375 L 3.109375 -24.34375 L 5.125 -27.859375 Z M 22.9375 -17.484375 "/></g></g></g><g clip-path="url(#b5294debfa)"><path fill="#8bc34a" d="M 261.78125 244.332031 C 232.824219 244.332031 209.269531 220.773438 209.269531 191.816406 C 209.269531 162.859375 232.824219 139.304688 261.78125 139.304688 C 290.738281 139.304688 314.296875 162.859375 314.296875 191.816406 C 314.296875 220.773438 290.738281 244.332031 261.78125 244.332031 Z M 261.78125 136.734375 C 231.410156 136.734375 206.699219 161.445312 206.699219 191.816406 C 206.699219 222.1875 231.410156 246.898438 261.78125 246.898438 C 292.15625 246.898438 316.863281 222.1875 316.863281 191.816406 C 316.863281 161.445312 292.15625 136.734375 261.78125 136.734375 " fill-opacity="1" fill-rule="nonzero"/></g><g clip-path="url(#b4c4a86cb5)"><path fill="#8bc34a" d="M 261.78125 138.570312 C 232.421875 138.570312 208.539062 162.457031 208.539062 191.816406 C 208.539062 221.175781 232.421875 245.0625 261.78125 245.0625 C 291.140625 245.0625 315.03125 221.175781 315.03125 191.816406 C 315.03125 162.457031 291.140625 138.570312 261.78125 138.570312 Z M 261.78125 246.167969 C 231.816406 246.167969 207.433594 221.785156 207.433594 191.816406 C 207.433594 161.847656 231.816406 137.464844 261.78125 137.464844 C 291.75 137.464844 316.132812 161.847656 316.132812 191.816406 C 316.132812 221.785156 291.75 246.167969 261.78125 246.167969 " fill-opacity="1" fill-rule="nonzero"/></g></svg>